/* XPM */
static char * close_inactive_xpm[] = {
"19 29 175 2",
"  	c None",
". 	c #5F5E57",
"+ 	c #5E5C55",
"@ 	c #5E5D55",
"# 	c #5B5A53",
"$ 	c #595750",
"% 	c #56554D",
"& 	c #54524A",
"* 	c #525049",
"= 	c #4F4E46",
"- 	c #4D4C45",
"; 	c #4A4842",
"> 	c #4A4841",
", 	c #4B4942",
"' 	c #4F4D46",
") 	c #525048",
"! 	c #4E4C45",
"~ 	c #45433D",
"{ 	c #373632",
"] 	c #2C2B29",
"^ 	c #222220",
"/ 	c #1D1D1C",
"( 	c #222120",
"_ 	c #2B2B28",
": 	c #44433C",
"< 	c #4E4C44",
"[ 	c #504E46",
"} 	c #4F4D45",
"| 	c #494740",
"1 	c #373631",
"2 	c #212120",
"3 	c #1B1B1B",
"4 	c #1F1F1F",
"5 	c #222222",
"6 	c #232323",
"7 	c #20201F",
"8 	c #363531",
"9 	c #48463F",
"0 	c #4D4B43",
"a 	c #4C4A43",
"b 	c #43413B",
"c 	c #1E1E1E",
"d 	c #3C3C3C",
"e 	c #606060",
"f 	c #777777",
"g 	c #838383",
"h 	c #787878",
"i 	c #616161",
"j 	c #3E3E3E",
"k 	c #2A2927",
"l 	c #42403B",
"m 	c #4A4942",
"n 	c #47453E",
"o 	c #2F2E2B",
"p 	c #1A1A1A",
"q 	c #292929",
"r 	c #5E5E5E",
"s 	c #878787",
"t 	c #8F8F8F",
"u 	c #888888",
"v 	c #2B2B2B",
"w 	c #2D2C2A",
"x 	c #373532",
"y 	c #666666",
"z 	c #8E8E8E",
"A 	c #696969",
"B 	c #2A2A2A",
"C 	c #47453F",
"D 	c #3F3E39",
"E 	c #2B2B29",
"F 	c #545454",
"G 	c #585858",
"H 	c #2A2A28",
"I 	c #3F3E38",
"J 	c #393935",
"K 	c #292928",
"L 	c #737373",
"M 	c #8D8D8D",
"N 	c #656565",
"O 	c #494949",
"P 	c #707070",
"Q 	c #4A4A4A",
"R 	c #626262",
"S 	c #767676",
"T 	c #3F3F3F",
"U 	c #3A3935",
"V 	c #373633",
"W 	c #282828",
"X 	c #4C4C4C",
"Y 	c #7F7F7F",
"Z 	c #686868",
"` 	c #555555",
" .	c #646464",
"..	c #909090",
"+.	c #808080",
"@.	c #4F4F4F",
"#.	c #282827",
"$.	c #363532",
"%.	c #353532",
"&.	c #5A5A5A",
"*.	c #898989",
"=.	c #8C8C8C",
"-.	c #404040",
";.	c #353432",
">.	c #373734",
",.	c #2E2E2D",
"'.	c #5C5C5C",
").	c #8A8A8A",
"!.	c #6E6E6E",
"~.	c #464646",
"{.	c #3D3D3D",
"].	c #454545",
"^.	c #6B6B6B",
"/.	c #2C2C2C",
"(.	c #373635",
"_.	c #393836",
":.	c #323231",
"<.	c #818181",
"[.	c #717171",
"}.	c #4D4D4D",
"|.	c #414141",
"1.	c #6F6F6F",
"2.	c #313131",
"3.	c #393937",
"4.	c #3B3A37",
"5.	c #373736",
"6.	c #868686",
"7.	c #5B5B5B",
"8.	c #5D5D5D",
"9.	c #797979",
"0.	c #3C3B39",
"a.	c #3D3D3C",
"b.	c #828282",
"c.	c #7C7C7C",
"d.	c #3C3C38",
"e.	c #3F3F3C",
"f.	c #3F3F3E",
"g.	c #7D7D7D",
"h.	c #7A7A7A",
"i.	c #4B4B4B",
"j.	c #3F3F3D",
"k.	c #3C3B37",
"l.	c #3B3A36",
"m.	c #3D3C39",
"n.	c #424240",
"o.	c #434343",
"p.	c #757575",
"q.	c #747474",
"r.	c #4E4E4E",
"s.	c #434342",
"t.	c #403F3C",
"u.	c #464645",
"v.	c #484848",
"w.	c #676767",
"x.	c #595959",
"y.	c #474645",
"z.	c #3D3C38",
"A.	c #40403C",
"B.	c #4B4A4A",
"C.	c #41403D",
"D.	c #3C3B38",
"E.	c #3E3E3A",
"F.	c #444341",
"G.	c #494947",
"H.	c #4B4B4A",
"I.	c #4E4E4D",
"J.	c #4C4B4A",
"K.	c #484846",
"L.	c #454542",
"M.	c #3F3E3B",
"N.	c #403F3B",
"O.	c #43423F",
"P.	c #454441",
"Q.	c #464542",
"R.	c #42423E",
". . . . . . . . . . . . . . . . . . . ",
"+ + + + + + + + + + + @ @ @ @ @ @ @ @ ",
"# # # # # # # # # # # # # # # # # # # ",
"$ $ $ $ $ $ $ $ $ $ $ $ $ $ $ $ $ $ $ ",
"% % % % % % % % % % % % % % % % % % % ",
"& & & & & * = - ; > , - ' ) & & & & & ",
") ) ) ) ! ~ { ] ^ / ( _ { : < ) ) ) ) ",
"[ } < | 1 2 3 4 5 6 5 4 3 7 8 9 < } } ",
"0 a b ] 3 c d e f g h i j 4 3 k l a a ",
"m n o p q r s t t t t t u i v p w n > ",
"9 x 2 q y z t t t t t t t z A B 7 8 C ",
"D E 4 F s z t t t t t t t z u G 4 H I ",
"J K d L z M N O P t L Q R M z S T K U ",
"V W X Y t t Z T O ` Q T  ...t +.@.#.$.",
"%.q &.*.t t =.y -.j -.R =.t t *.r q ;.",
">.,.'.).t z =.!.~.{.].^.=.M t ).e /.(.",
"_.:.` <.=.).[.}.-.|.-.X 1.).=.g G 2.3.",
"4.5.}.f *.6.i -.7.f 8.-.r 6.*.9.@.5.0.",
"4.a.{.R b.g 9.[.S c.f [.h g g N j a.d.",
"4.e.f.Q !.<.g.h.9.f h h.g.+.1.i.f.j.k.",
"l.m.n.o.}.Z f f p.q.q.f f A r.o.s.d.k.",
"l.k.t.u.v.i.G  .w.Z w. .x.i.v.y.t.k.k.",
"l.k.z.A.y.i.}.r.r.}.r.r.}.B.y.C.D.k.k.",
"l.k.k.k.E.F.G.H.I.@.I.J.K.L.M.k.k.k.k.",
"l.k.k.k.k.m.N.O.P.Q.P.R.N.z.k.k.k.k.k.",
"l.k.k.k.k.k.k.k.k.k.k.k.k.k.k.k.k.k.k.",
"l.k.k.k.k.k.k.k.k.k.k.k.k.k.k.k.k.k.k.",
"l.k.k.k.k.k.k.k.k.k.k.k.k.k.k.k.k.k.k.",
"l.k.k.k.k.k.k.k.k.k.k.k.k.k.k.k.k.k.k."};
