/* XPM */
static char * close_active_xpm[] = {
"19 29 271 2",
"  	c None",
". 	c #5F5E57",
"+ 	c #5E5C55",
"@ 	c #5E5D55",
"# 	c #5B5A53",
"$ 	c #595750",
"% 	c #56554D",
"& 	c #54524A",
"* 	c #535049",
"= 	c #514E45",
"- 	c #4F4B43",
"; 	c #4E4840",
"> 	c #4E473E",
", 	c #4E483F",
"' 	c #514D45",
") 	c #535048",
"! 	c #525048",
"~ 	c #504C44",
"{ 	c #4A4139",
"] 	c #42332B",
"^ 	c #3B271E",
"/ 	c #351D13",
"( 	c #32180E",
"_ 	c #3A271D",
": 	c #41332A",
"< 	c #494138",
"[ 	c #504C43",
"} 	c #504E46",
"| 	c #4F4D45",
"1 	c #4E4C44",
"2 	c #4C473F",
"3 	c #341C12",
"4 	c #331409",
"5 	c #3A170B",
"6 	c #3D1A0E",
"7 	c #3E1C10",
"8 	c #341409",
"9 	c #331B11",
"0 	c #403129",
"a 	c #4B463E",
"b 	c #4D4B43",
"c 	c #4C4A43",
"d 	c #474038",
"e 	c #3A271E",
"f 	c #31150B",
"g 	c #38170B",
"h 	c #6D2E18",
"i 	c #AF4927",
"j 	c #D0603A",
"k 	c #DB6E49",
"l 	c #D1613B",
"m 	c #B14A27",
"n 	c #713019",
"o 	c #39170C",
"p 	c #39251C",
"q 	c #463F38",
"r 	c #4A4942",
"s 	c #48453D",
"t 	c #3C2B22",
"u 	c #2E140B",
"v 	c #4B1F10",
"w 	c #A34B2D",
"x 	c #DD7450",
"y 	c #E07F5E",
"z 	c #DD7551",
"A 	c #A94E2F",
"B 	c #4D2011",
"C 	c #3B2820",
"D 	c #49453D",
"E 	c #4A4841",
"F 	c #48463F",
"G 	c #41332B",
"H 	c #341C11",
"I 	c #4B1F0F",
"J 	c #A6563A",
"K 	c #DF7E5C",
"L 	c #AB5A3D",
"M 	c #4E200F",
"N 	c #341B10",
"O 	c #403329",
"P 	c #47453F",
"Q 	c #443D36",
"R 	c #3D251B",
"S 	c #39170B",
"T 	c #924328",
"U 	c #DF7E5D",
"V 	c #DF805F",
"W 	c #DF7F5E",
"X 	c #9A472B",
"Y 	c #3D241A",
"Z 	c #443D35",
"` 	c #42362E",
" .	c #412216",
"..	c #702D16",
"+.	c #BF6141",
"@.	c #DF7D5B",
"#.	c #A95438",
"$.	c #88371B",
"%.	c #BC5E3E",
"&.	c #E0805F",
"*.	c #BF6242",
"=.	c #8A381B",
"-.	c #A55134",
";.	c #C26444",
">.	c #742E16",
",.	c #412116",
"'.	c #44352D",
").	c #463128",
"!.	c #442014",
"~.	c #8E381B",
"{.	c #D56A45",
"].	c #AC593B",
"^.	c #773017",
"/.	c #9E4121",
"(.	c #8A381C",
"_.	c #763017",
":.	c #A75538",
"<.	c #E08160",
"[.	c #D66C47",
"}.	c #943B1C",
"|.	c #452013",
"1.	c #473026",
"2.	c #4A2E22",
"3.	c #4A1F10",
"4.	c #9A492D",
"5.	c #DD7653",
"6.	c #DC7D5D",
"7.	c #A9573A",
"8.	c #752F16",
"9.	c #A55336",
"0.	c #DD7754",
"a.	c #A14D30",
"b.	c #4B2D21",
"c.	c #4F3022",
"d.	c #522311",
"e.	c #9D4C2F",
"f.	c #DE7754",
"g.	c #DF7D5C",
"h.	c #DF7C5A",
"i.	c #BA5B3B",
"j.	c #843519",
"k.	c #722E16",
"l.	c #823419",
"m.	c #B75838",
"n.	c #DE7855",
"o.	c #A45032",
"p.	c #512211",
"q.	c #512F22",
"r.	c #4E3227",
"s.	c #582715",
"t.	c #9C4021",
"u.	c #D96D47",
"v.	c #DE7C5A",
"w.	c #DE7956",
"x.	c #C05E3D",
"y.	c #8E3B1E",
"z.	c #783017",
"A.	c #8B3A1D",
"B.	c #BD5C3B",
"C.	c #DA6E4A",
"D.	c #A24322",
"E.	c #572615",
"F.	c #503327",
"G.	c #4B362B",
"H.	c #5D2C1A",
"I.	c #8E391B",
"J.	c #C96340",
"K.	c #DD7855",
"L.	c #DC734E",
"M.	c #A94F30",
"N.	c #A04829",
"O.	c #CA613D",
"P.	c #A44A2B",
"Q.	c #A44C2D",
"R.	c #DC724E",
"S.	c #DD7755",
"T.	c #CC6542",
"U.	c #923A1C",
"V.	c #5E2C19",
"W.	c #4D362C",
"X.	c #453730",
"Y.	c #623220",
"Z.	c #AC4F2E",
"`.	c #DB6D48",
" +	c #DB6F49",
".+	c #CF633D",
"++	c #C55B36",
"@+	c #CF5F39",
"#+	c #D9643C",
"$+	c #D06039",
"%+	c #CE623D",
"&+	c #DB6E48",
"*+	c #B05130",
"=+	c #63311F",
"-+	c #463930",
";+	c #3C3935",
">+	c #583829",
",+	c #6F311B",
"'+	c #88381D",
")+	c #BE5937",
"!+	c #DA6A44",
"~+	c #D9653D",
"{+	c #D86138",
"]+	c #D75E35",
"^+	c #D75D33",
"/+	c #C05B38",
"(+	c #8A391D",
"_+	c #6F311A",
":+	c #5A3729",
"<+	c #3D3A35",
"[+	c #3B3A36",
"}+	c #443A34",
"|+	c #683724",
"1+	c #7C3319",
"2+	c #8D3C1F",
"3+	c #BC502B",
"4+	c #D75C32",
"5+	c #D65C31",
"6+	c #D6582D",
"7+	c #D5562B",
"8+	c #D5582C",
"9+	c #BF512C",
"0+	c #8F3D20",
"a+	c #6B3724",
"b+	c #443A33",
"c+	c #3C3B37",
"d+	c #3D3B37",
"e+	c #503A30",
"f+	c #733924",
"g+	c #85361B",
"h+	c #8C381B",
"i+	c #A24221",
"j+	c #B84B25",
"k+	c #C04D25",
"l+	c #C24D25",
"m+	c #A44221",
"n+	c #8D381B",
"o+	c #753822",
"p+	c #523A2F",
"q+	c #403B36",
"r+	c #4F3B31",
"s+	c #6D3B29",
"t+	c #85391F",
"u+	c #90391C",
"v+	c #923B1C",
"w+	c #913A1C",
"x+	c #903A1B",
"y+	c #87391F",
"z+	c #6E3B28",
"A+	c #503B31",
"B+	c #3F3A36",
"C+	c #483C33",
"D+	c #5F3C2E",
"E+	c #723C28",
"F+	c #7E3C24",
"G+	c #8A3C20",
"H+	c #903C1F",
"I+	c #8B3D20",
"J+	c #7F3C23",
"K+	c #723C27",
"L+	c #603C2D",
"M+	c #493B34",
"N+	c #3D3A36",
"O+	c #4A3C33",
"P+	c #543D32",
"Q+	c #5C3D2F",
"R+	c #613D2F",
"S+	c #5D3D2F",
"T+	c #533D31",
"U+	c #4B3C33",
"V+	c #413B35",
". . . . . . . . . . . . . . . . . . . ",
"+ + + + + + + + + + + @ @ @ @ @ @ @ @ ",
"# # # # # # # # # # # # # # # # # # # ",
"$ $ $ $ $ $ $ $ $ $ $ $ $ $ $ $ $ $ $ ",
"% % % % % % % % % % % % % % % % % % % ",
"& & & & & * = - ; > , - ' ) & & & & & ",
"! ! ! ! ~ { ] ^ / ( / _ : < [ ! ! ! ! ",
"} | 1 2 : 3 4 5 6 7 6 5 8 9 0 a 1 | | ",
"b c d e f g h i j k l m n o f p q c c ",
"r s t u v w x y y y y y z A B u C D E ",
"F G H I J K y y y y y y y K L M N O P ",
"Q R S T x U V V W y W V V U z X S Y Z ",
"`  ...+.U @.#.$.%.&.*.=.-.@.U ;.>.,.'.",
").!.~.{.y &.].^.$./.(._.:.<.y [.}.|.1.",
"2.3.4.5.y y 6.7.^.8.^.9.6.y y 0.a.3.b.",
"c.d.e.f.y g.h.i.j.k.l.m.h.@.y n.o.p.q.",
"r.s.t.u.v.w.x.y.z.z.z.A.B.w.v.C.D.E.F.",
"G.H.I.J.K.L.M.z.N.O.P.z.Q.R.S.T.U.V.W.",
"X.Y.k.Z.`. +.+++@+#+$+++%+k &+*+k.=+-+",
";+>+,+'+)+!+~+{+]+^+]+{+~+!+/+(+_+:+<+",
"[+}+|+1+2+3+4+5+6+7+8+5+4+9+0+1+a+b+c+",
"[+d+e+f+g+h+i+j+k+l+k+j+m+n+g+o+p+d+c+",
"[+c+q+r+s+t+u+v+w+x+w+v+u+y+z+A+B+c+c+",
"[+c+c+d+C+D+E+F+G+H+I+J+K+L+M+N+c+c+c+",
"[+c+c+c+c+q+O+P+Q+R+S+T+U+V+c+c+c+c+c+",
"[+c+c+c+c+c+c+c+c+c+c+c+c+c+c+c+c+c+c+",
"[+c+c+c+c+c+c+c+c+c+c+c+c+c+c+c+c+c+c+",
"[+c+c+c+c+c+c+c+c+c+c+c+c+c+c+c+c+c+c+",
"[+c+c+c+c+c+c+c+c+c+c+c+c+c+c+c+c+c+c+"};
