/* XPM */
static char * close_pressed_xpm[] = {
"19 29 240 2",
"  	c None",
". 	c #5F5E57",
"+ 	c #5E5C55",
"@ 	c #5E5D55",
"# 	c #5B5A53",
"$ 	c #595750",
"% 	c #56554D",
"& 	c #54524A",
"* 	c #525049",
"= 	c #504D45",
"- 	c #4E4A42",
"; 	c #4C4740",
"> 	c #4C463E",
", 	c #4C473F",
"' 	c #525048",
") 	c #4F4B44",
"! 	c #474038",
"~ 	c #3C312A",
"{ 	c #33241E",
"] 	c #2A1912",
"^ 	c #26130C",
"/ 	c #2A1812",
"( 	c #32241D",
"_ 	c #3B3029",
": 	c #464037",
"< 	c #4F4B43",
"[ 	c #504E46",
"} 	c #4F4D45",
"| 	c #4E4C44",
"1 	c #4A463E",
"2 	c #3B3129",
"3 	c #291711",
"4 	c #260F08",
"5 	c #2B1109",
"6 	c #2E1309",
"7 	c #2F140A",
"8 	c #291710",
"9 	c #3A2F28",
"0 	c #4A453D",
"a 	c #4D4B43",
"b 	c #4C4A43",
"c 	c #453F38",
"d 	c #32231D",
"e 	c #24100A",
"f 	c #2A1108",
"g 	c #532211",
"h 	c #84361C",
"i 	c #A44423",
"j 	c #B34A26",
"k 	c #A54423",
"l 	c #85371C",
"m 	c #562312",
"n 	c #25100A",
"o 	c #31221C",
"p 	c #443E38",
"q 	c #4A4942",
"r 	c #48443D",
"s 	c #342821",
"t 	c #231009",
"u 	c #38170C",
"v 	c #80351B",
"w 	c #B94C27",
"x 	c #C3512A",
"y 	c #BA4D27",
"z 	c #3A180C",
"A 	c #33251F",
"B 	c #48453D",
"C 	c #4A4841",
"D 	c #48463F",
"E 	c #3C312B",
"F 	c #2A1710",
"G 	c #38170B",
"H 	c #8B3A1E",
"I 	c #C2512A",
"J 	c #8F3C1F",
"K 	c #29160F",
"L 	c #47453F",
"M 	c #423C36",
"N 	c #33221A",
"O 	c #2A1109",
"P 	c #732F18",
"Q 	c #C25029",
"R 	c #C45129",
"S 	c #C35129",
"T 	c #B94D27",
"U 	c #793219",
"V 	c #322018",
"W 	c #413C35",
"X 	c #3C342C",
"Y 	c #331D14",
"Z 	c #522211",
"` 	c #9D4121",
" .	c #C15029",
"..	c #8B391D",
"+.	c #652A15",
"@.	c #9A4021",
"#.	c #C4512A",
"$.	c #9E4221",
"%.	c #662A16",
"&.	c #86371C",
"*.	c #A14322",
"=.	c #331C14",
"-.	c #3D332C",
";.	c #3D2E27",
">.	c #341A11",
",.	c #682B16",
"'.	c #AD4825",
").	c #8F3B1E",
"!.	c #582412",
"~.	c #652915",
"{.	c #753018",
"].	c #662A15",
"^.	c #572412",
"/.	c #8A391D",
"(.	c #C5522A",
"_.	c #AF4925",
":.	c #6D2D17",
"<.	c #351A10",
"[.	c #3D2D25",
"}.	c #3E2A21",
"|.	c #37180E",
"1.	c #7B331A",
"2.	c #BB4D28",
"3.	c #C05029",
"4.	c #8C3A1E",
"5.	c #87381C",
"6.	c #BC4E28",
"7.	c #81351B",
"8.	c #3E2920",
"9.	c #412B20",
"0.	c #3D1B0E",
"a.	c #7E341B",
"b.	c #963F20",
"c.	c #612814",
"d.	c #542312",
"e.	c #5F2814",
"f.	c #923D1F",
"g.	c #BD4E28",
"h.	c #84371C",
"i.	c #3C1A0E",
"j.	c #422A20",
"k.	c #422E26",
"l.	c #421F13",
"m.	c #743019",
"n.	c #B14A26",
"o.	c #BE4E28",
"p.	c #9C4021",
"q.	c #6A2C17",
"r.	c #592412",
"s.	c #993F20",
"t.	c #C04F29",
"u.	c #79321A",
"v.	c #411F13",
"w.	c #422E25",
"x.	c #42322A",
"y.	c #472518",
"z.	c #A34423",
"A.	c #B74C27",
"B.	c #582413",
"C.	c #7C331A",
"D.	c #A24322",
"E.	c #7F351B",
"F.	c #A64523",
"G.	c #6B2C17",
"H.	c #482417",
"I.	c #43322B",
"J.	c #3F352F",
"K.	c #4D2A1D",
"L.	c #86371D",
"M.	c #B44B26",
"N.	c #A54523",
"O.	c #9B4021",
"P.	c #A34322",
"Q.	c #AA4624",
"R.	c #A34422",
"S.	c #8B391E",
"T.	c #4D291C",
"U.	c #403730",
"V.	c #3B3935",
"W.	c #4A3227",
"X.	c #542717",
"Y.	c #963E20",
"Z.	c #B04925",
"`.	c #AB4724",
" +	c #A74623",
".+	c #672B16",
"++	c #532716",
"@+	c #4B3127",
"#+	c #3C3A35",
"$+	c #3B3A36",
"%+	c #403933",
"&+	c #533022",
"*+	c #5B2715",
"=+	c #6A2C16",
"-+	c #8E3B1E",
";+	c #9F4222",
">+	c #9E4122",
",+	c #903C1F",
"'+	c #6C2C17",
")+	c #542F21",
"!+	c #403932",
"~+	c #3C3B37",
"{+	c #3D3B37",
"]+	c #47372E",
"^+	c #592F20",
"/+	c #622A16",
"(+	c #78321A",
"_+	c #88381D",
":+	c #8D3A1E",
"<+	c #89381D",
"[+	c #7A321A",
"}+	c #5A2E1F",
"|+	c #48362E",
"1+	c #3E3B36",
"2+	c #463830",
"3+	c #573325",
"4+	c #642D1A",
"5+	c #652D1A",
"6+	c #573225",
"7+	c #473830",
"8+	c #3D3A36",
"9+	c #423A33",
"0+	c #50362C",
"a+	c #5A3425",
"b+	c #613120",
"c+	c #682F1B",
"d+	c #6B2F19",
"e+	c #69301B",
"f+	c #62311F",
"g+	c #5A3324",
"h+	c #50372B",
"i+	c #433933",
"j+	c #3C3A36",
"k+	c #3E3A36",
"l+	c #443932",
"m+	c #4A3930",
"n+	c #4F382D",
"o+	c #52382C",
"p+	c #453A32",
"q+	c #3E3A35",
". . . . . . . . . . . . . . . . . . . ",
"+ + + + + + + + + + + @ @ @ @ @ @ @ @ ",
"# # # # # # # # # # # # # # # # # # # ",
"$ $ $ $ $ $ $ $ $ $ $ $ $ $ $ $ $ $ $ ",
"% % % % % % % % % % % % % % % % % % % ",
"& & & & & * = - ; > , - = ' & & & & & ",
"' ' ' ' ) ! ~ { ] ^ / ( _ : < ' ' ' ' ",
"[ } | 1 2 3 4 5 6 7 6 5 4 8 9 0 | } } ",
"a b c d e f g h i j k l m 5 n o p b b ",
"q r s t u v w x x x x x y l z t A B C ",
"D E F G H I x x x x x x x I J z K _ L ",
"M N O P w Q R R S x S R R Q T U O V W ",
"X Y Z ` Q  ...+.@.#.$.%.&. .Q *.m =.-.",
";.>.,.'.x #.).!.~.{.].^./.(.x _.:.<.[.",
"}.|.1.2.x x 3.4.!.m !.5.3.x x 6.7.|.8.",
"9.0.a.6.x  .3.b.c.d.e.f.3. .x g.h.i.j.",
"k.l.m.n.3.o.p.q.!.r.!.,.s.g.t.j u.v.w.",
"x.y.,.z.6.A.l B.C.D.E.!.7.A.6.F.G.H.I.",
"J.K.d.L.j M.N.O.P.Q.R.O.i M.j S.d.T.U.",
"V.W.X.%.Y.Z.`. +N.i N. +`.Z.s..+++@+#+",
"$+%+&+*+=+-+z.P.;+>+;+D.z.,+'+*+)+!+~+",
"$+{+]+^+/+.+(+_+:+-+:+<+[+,./+}+|+{+~+",
"$+~+1+2+3+4+=+'+G.=+G.'+=+5+6+7+8+~+~+",
"$+~+~+{+9+0+a+b+c+d+e+f+g+h+i+j+~+~+~+",
"$+~+~+~+~+k+l+m+n+o+n+m+p+q+~+~+~+~+~+",
"$+~+~+~+~+~+~+~+~+~+~+~+~+~+~+~+~+~+~+",
"$+~+~+~+~+~+~+~+~+~+~+~+~+~+~+~+~+~+~+",
"$+~+~+~+~+~+~+~+~+~+~+~+~+~+~+~+~+~+~+",
"$+~+~+~+~+~+~+~+~+~+~+~+~+~+~+~+~+~+~+"};
