/* XPM */
static char * close_prelight_xpm[] = {
"19 29 280 2",
"  	c None",
". 	c #5F5E57",
"+ 	c #5E5C55",
"@ 	c #5E5D55",
"# 	c #5B5A53",
"$ 	c #595750",
"% 	c #56554D",
"& 	c #54524A",
"* 	c #535049",
"= 	c #524E45",
"- 	c #514B42",
"; 	c #50483F",
"> 	c #50473D",
", 	c #50483E",
"' 	c #524D45",
") 	c #535048",
"! 	c #525048",
"~ 	c #504C44",
"{ 	c #4D4237",
"] 	c #473528",
"^ 	c #42281B",
"/ 	c #3E1F0F",
"( 	c #3C1909",
"_ 	c #3E1E0F",
": 	c #42291A",
"< 	c #473427",
"[ 	c #4C4237",
"} 	c #504C43",
"| 	c #504E46",
"1 	c #4F4D45",
"2 	c #4F4C44",
"3 	c #4D473E",
"4 	c #463427",
"5 	c #3E1E0E",
"6 	c #401604",
"7 	c #481A04",
"8 	c #4A1D08",
"9 	c #4A1F0C",
"0 	c #4A1D09",
"a 	c #491A04",
"b 	c #411704",
"c 	c #3E1D0D",
"d 	c #453226",
"e 	c #4C463D",
"f 	c #4D4B43",
"g 	c #4C4A43",
"h 	c #494037",
"i 	c #3C1706",
"j 	c #451A07",
"k 	c #85340F",
"l 	c #D55217",
"m 	c #F26F34",
"n 	c #F4824E",
"o 	c #F27136",
"p 	c #D85317",
"q 	c #8A3610",
"r 	c #461B07",
"s 	c #422619",
"t 	c #4A4942",
"u 	c #49453D",
"v 	c #422B1F",
"w 	c #3A1606",
"x 	c #5C2308",
"y 	c #BB582B",
"z 	c #F58857",
"A 	c #F69569",
"B 	c #F58A59",
"C 	c #C15C2E",
"D 	c #5F2409",
"E 	c #391606",
"F 	c #42291D",
"G 	c #4A4841",
"H 	c #48463F",
"I 	c #463429",
"J 	c #3F1D0D",
"K 	c #5E2106",
"L 	c #BE643C",
"M 	c #F69467",
"N 	c #C3683F",
"O 	c #612307",
"P 	c #3F1C0C",
"Q 	c #463327",
"R 	c #47453F",
"S 	c #463D35",
"T 	c #472716",
"U 	c #481904",
"V 	c #A74F27",
"W 	c #F58958",
"X 	c #F69468",
"Y 	c #F5966A",
"Z 	c #F5966B",
"` 	c #F59569",
" .	c #AF542A",
"..	c #482614",
"+.	c #463D34",
"@.	c #47362B",
"#.	c #4D2310",
"$.	c #8C3108",
"%.	c #DC6F3E",
"&.	c #F59468",
"*.	c #F69366",
"=.	c #C36235",
"-.	c #A93C0B",
";.	c #DA6C3A",
">.	c #F6956A",
",.	c #DC703F",
"'.	c #AC3D0B",
").	c #BF5E31",
"!.	c #DE7343",
"~.	c #913308",
"{.	c #4D230F",
"].	c #49362A",
"^.	c #4E3224",
"/.	c #53220C",
"(.	c #AA4010",
"_.	c #F27B45",
":.	c #F6966B",
"<.	c #C6653A",
"[.	c #943409",
"}.	c #A93D0C",
"|.	c #C34710",
"1.	c #AB3E0D",
"2.	c #C26135",
"3.	c #F6976C",
"4.	c #F37E49",
"5.	c #B24311",
"6.	c #53220B",
"7.	c #4F3222",
"8.	c #55301D",
"9.	c #5C2208",
"0.	c #AF552D",
"a.	c #F58B5B",
"b.	c #F29368",
"c.	c #C36338",
"d.	c #953409",
"e.	c #913309",
"f.	c #BF5F33",
"g.	c #F19368",
"h.	c #F58C5D",
"i.	c #B75A30",
"j.	c #582F1B",
"k.	c #5C321C",
"l.	c #662607",
"m.	c #B35830",
"n.	c #F69163",
"o.	c #D86937",
"p.	c #A43909",
"q.	c #8E3209",
"r.	c #A23909",
"s.	c #D56532",
"t.	c #F69266",
"u.	c #F58D5F",
"v.	c #BA5D33",
"w.	c #652407",
"x.	c #5F311B",
"y.	c #593422",
"z.	c #6C2A0C",
"A.	c #B84B1A",
"B.	c #F4804B",
"C.	c #F59164",
"D.	c #F58E60",
"E.	c #DE6D3A",
"F.	c #AE4110",
"G.	c #963509",
"H.	c #AC400F",
"I.	c #DC6A37",
"J.	c #BE4E1B",
"K.	c #6B290C",
"L.	c #5B3521",
"M.	c #543727",
"N.	c #713011",
"O.	c #B03F0C",
"P.	c #E8733D",
"Q.	c #F58D5E",
"R.	c #F48756",
"S.	c #C45B2C",
"T.	c #BB5223",
"U.	c #E4723E",
"V.	c #BF5526",
"W.	c #BF5729",
"X.	c #F48755",
"Y.	c #F58C5E",
"Z.	c #EA7641",
"`.	c #B4410D",
" +	c #722F10",
".+	c #563727",
"++	c #4A382E",
"@+	c #763517",
"#+	c #8E3208",
"$+	c #C65B2B",
"%+	c #F4814E",
"&+	c #F48350",
"*+	c #E97541",
"=+	c #E06B36",
"-+	c #E9713A",
";+	c #F3773E",
">+	c #EA713B",
",+	c #E87440",
"'+	c #F4824F",
")+	c #CB5F2E",
"!+	c #8F3208",
"~+	c #783415",
"{+	c #4B3A2E",
"]+	c #3D3935",
"^+	c #663A23",
"/+	c #88350E",
"(+	c #A63F10",
"_+	c #DA6734",
":+	c #F47E49",
"<+	c #F37840",
"[+	c #F3733A",
"}+	c #F37036",
"|+	c #F36F34",
"1+	c #F37740",
"2+	c #F47D48",
"3+	c #DC6A36",
"4+	c #A84010",
"5+	c #89350D",
"6+	c #693922",
"7+	c #3E3A35",
"8+	c #3B3A36",
"9+	c #483B32",
"0+	c #7C3B1B",
"a+	c #9A370B",
"b+	c #AC4212",
"c+	c #DA5E26",
"d+	c #F26E32",
"e+	c #F26D32",
"f+	c #F2692C",
"g+	c #F26829",
"h+	c #F26E33",
"i+	c #DC5F26",
"j+	c #AE4313",
"k+	c #803B1A",
"l+	c #493B31",
"m+	c #3C3B37",
"n+	c #3D3B37",
"o+	c #593B2B",
"p+	c #8C3C18",
"q+	c #A53B0B",
"r+	c #AB3F0E",
"s+	c #C34B14",
"t+	c #DE5517",
"u+	c #E85716",
"v+	c #EB5715",
"w+	c #C54C15",
"x+	c #8E3C16",
"y+	c #5B3B2B",
"z+	c #413B35",
"A+	c #563C2D",
"B+	c #813D1F",
"C+	c #A43E10",
"D+	c #B33F0A",
"E+	c #B6400A",
"F+	c #B5400A",
"G+	c #A63E0F",
"H+	c #833D1E",
"I+	c #593C2D",
"J+	c #413A35",
"K+	c #3E3B37",
"L+	c #4D3C31",
"M+	c #6D3E27",
"N+	c #88401D",
"O+	c #9A4017",
"P+	c #AA4110",
"Q+	c #B3420E",
"R+	c #AC4210",
"S+	c #9B4016",
"T+	c #883F1C",
"U+	c #6F3F26",
"V+	c #4F3C31",
"W+	c #3D3A36",
"X+	c #423B35",
"Y+	c #503D30",
"Z+	c #5D3E2D",
"`+	c #693F29",
" @	c #6F4028",
".@	c #5D3E2C",
"+@	c #513D30",
"@@	c #433B34",
". . . . . . . . . . . . . . . . . . . ",
"+ + + + + + + + + + + @ @ @ @ @ @ @ @ ",
"# # # # # # # # # # # # # # # # # # # ",
"$ $ $ $ $ $ $ $ $ $ $ $ $ $ $ $ $ $ $ ",
"% % % % % % % % % % % % % % % % % % % ",
"& & & & & * = - ; > , - ' ) & & & & & ",
"! ! ! ! ~ { ] ^ / ( _ : < [ } ! ! ! ! ",
"| 1 2 3 4 5 6 7 8 9 0 a b c d e 2 1 1 ",
"f g h ^ i j k l m n o p q r i s h g g ",
"t u v w x y z A A A A A B C D E F u G ",
"H I J K L M A A A A A A A M N O P Q R ",
"S T U V W X Y Z ` A ` Z Y X B  .U ..+.",
"@.#.$.%.&.*.=.-.;.>.,.'.).*.&.!.~.{.].",
"^./.(._.A :.<.[.}.|.1.[.2.3.A 4.5.6.7.",
"8.9.0.a.A A b.c.d.e.d.f.g.A A h.i.9.j.",
"k.l.m.h.A *.n.o.p.q.r.s.n.t.A u.v.w.x.",
"y.z.A.B.C.D.E.F.d.G.d.H.I.D.C.n J.K.L.",
"M.N.O.P.Q.R.S.d.T.U.V.d.W.X.Y.Z.`. +.+",
"++@+#+$+%+&+*+=+-+;+>+=+,+'+n )+!+~+{+",
"]+^+/+(+_+:+<+[+}+|+}+[+1+2+3+4+5+6+7+",
"8+9+0+a+b+c+d+e+f+g+f+e+h+i+j+a+k+l+m+",
"8+n+o+p+q+r+s+t+u+v+u+t+w+r+q+x+y+n+m+",
"8+m+z+A+B+C+D+E+F+D+F+E+D+G+H+I+J+m+m+",
"8+m+m+K+L+M+N+O+P+Q+R+S+T+U+V+W+m+m+m+",
"8+m+m+m+m+X+Y+Z+`+ @`+.@+@@@m+m+m+m+m+",
"8+m+m+m+m+m+m+m+m+m+m+m+m+m+m+m+m+m+m+",
"8+m+m+m+m+m+m+m+m+m+m+m+m+m+m+m+m+m+m+",
"8+m+m+m+m+m+m+m+m+m+m+m+m+m+m+m+m+m+m+",
"8+m+m+m+m+m+m+m+m+m+m+m+m+m+m+m+m+m+m+"};
