/* XPM */
static char * hide_inactive_xpm[] = {
"19 29 166 2",
"  	c None",
". 	c #5F5E57",
"+ 	c #5E5C55",
"@ 	c #5E5D55",
"# 	c #5B5A53",
"$ 	c #595750",
"% 	c #56554D",
"& 	c #54524A",
"* 	c #525049",
"= 	c #4F4E46",
"- 	c #4D4C45",
"; 	c #4A4842",
"> 	c #4A4841",
", 	c #4B4942",
"' 	c #4F4D46",
") 	c #525048",
"! 	c #4E4C45",
"~ 	c #45433D",
"{ 	c #373632",
"] 	c #2C2B29",
"^ 	c #222220",
"/ 	c #1D1D1C",
"( 	c #222120",
"_ 	c #2B2B28",
": 	c #44433C",
"< 	c #4E4C44",
"[ 	c #504E46",
"} 	c #4F4D45",
"| 	c #494740",
"1 	c #373631",
"2 	c #212120",
"3 	c #1C1C1C",
"4 	c #202020",
"5 	c #222222",
"6 	c #232323",
"7 	c #363531",
"8 	c #48463F",
"9 	c #4D4B43",
"0 	c #4C4A43",
"a 	c #43413B",
"b 	c #1B1B1B",
"c 	c #1F1F1F",
"d 	c #404040",
"e 	c #676767",
"f 	c #7C7C7C",
"g 	c #868686",
"h 	c #7D7D7D",
"i 	c #686868",
"j 	c #434343",
"k 	c #2A2927",
"l 	c #42403B",
"m 	c #4A4942",
"n 	c #47453E",
"o 	c #2F2E2B",
"p 	c #1A1A1A",
"q 	c #2C2C2C",
"r 	c #626262",
"s 	c #898989",
"t 	c #8F8F8F",
"u 	c #656565",
"v 	c #2D2D2D",
"w 	c #2D2C2A",
"x 	c #373532",
"y 	c #8E8E8E",
"z 	c #6C6C6C",
"A 	c #2E2E2E",
"B 	c #20201F",
"C 	c #47453F",
"D 	c #3F3E39",
"E 	c #2B2B29",
"F 	c #565656",
"G 	c #5A5A5A",
"H 	c #2A2A28",
"I 	c #3F3E38",
"J 	c #393935",
"K 	c #292928",
"L 	c #767676",
"M 	c #797979",
"N 	c #3A3935",
"O 	c #373633",
"P 	c #282828",
"Q 	c #4F4F4F",
"R 	c #818181",
"S 	c #8D8D8D",
"T 	c #8B8B8B",
"U 	c #8A8A8A",
"V 	c #828282",
"W 	c #535353",
"X 	c #282827",
"Y 	c #363532",
"Z 	c #353532",
"` 	c #292929",
" .	c #5B5B5B",
"..	c #5F5F5F",
"+.	c #353432",
"@.	c #373734",
"#.	c #2E2E2D",
"$.	c #5D5D5D",
"%.	c #3A3A3A",
"&.	c #373635",
"*.	c #393836",
"=.	c #323231",
"-.	c #575757",
";.	c #848484",
">.	c #808080",
",.	c #777777",
"'.	c #747474",
").	c #7F7F7F",
"!.	c #858585",
"~.	c #313131",
"{.	c #393937",
"].	c #3B3A37",
"^.	c #373736",
"/.	c #838383",
"(.	c #7E7E7E",
"_.	c #7B7B7B",
":.	c #515151",
"<.	c #3C3B39",
"[.	c #3D3D3C",
"}.	c #3E3E3E",
"|.	c #636363",
"1.	c #3C3C38",
"2.	c #3F3F3C",
"3.	c #3F3F3E",
"4.	c #4B4B4B",
"5.	c #6E6E6E",
"6.	c #7A7A7A",
"7.	c #787878",
"8.	c #707070",
"9.	c #4C4C4C",
"0.	c #3F3F3D",
"a.	c #3C3B37",
"b.	c #3B3A36",
"c.	c #3D3C39",
"d.	c #424240",
"e.	c #4E4E4E",
"f.	c #757575",
"g.	c #6A6A6A",
"h.	c #434342",
"i.	c #403F3C",
"j.	c #464645",
"k.	c #484848",
"l.	c #585858",
"m.	c #646464",
"n.	c #595959",
"o.	c #474645",
"p.	c #3D3C38",
"q.	c #40403C",
"r.	c #4D4D4D",
"s.	c #4B4A4A",
"t.	c #41403D",
"u.	c #3C3B38",
"v.	c #3E3E3A",
"w.	c #444341",
"x.	c #494947",
"y.	c #4B4B4A",
"z.	c #4E4E4D",
"A.	c #4C4B4A",
"B.	c #484846",
"C.	c #454542",
"D.	c #3F3E3B",
"E.	c #403F3B",
"F.	c #43423F",
"G.	c #454441",
"H.	c #464542",
"I.	c #42423E",
". . . . . . . . . . . . . . . . . . . ",
"+ + + + + + + + + + + @ @ @ @ @ @ @ @ ",
"# # # # # # # # # # # # # # # # # # # ",
"$ $ $ $ $ $ $ $ $ $ $ $ $ $ $ $ $ $ $ ",
"% % % % % % % % % % % % % % % % % % % ",
"& & & & & * = - ; > , - ' ) & & & & & ",
") ) ) ) ! ~ { ] ^ / ( _ { : < ) ) ) ) ",
"[ } < | 1 2 3 4 5 6 5 4 3 2 7 8 < } } ",
"9 0 a ] b c d e f g h i j 4 b k l 0 0 ",
"m n o p q r s t t t t t s u v p w n > ",
"8 x 2 q i y t t t t t t t y z A B 7 C ",
"D E c F s t t t t t t t t t s G c H I ",
"J K d L y t t t t t t t t t y M j K N ",
"O P Q R S T s s s s s s s U S V W X Y ",
"Z `  .U T r d d d d d d d ..T U ..` +.",
"@.#.$.U T ..%.%.%.%.%.%.%. .T T r q &.",
"*.=.-.;.T >.,.L '.'.'.L ,.).T !. .~.{.",
"].^.Q M s g /.R ).(.).R V g s _.:.^.<.",
"].[.}.|././.>.(.f _.f (.>././.e }.[.1.",
"].2.3.4.5.>.h 6.7.,.7.6.h >.8.9.3.0.a.",
"b.c.d.j e.i ,.,.f.'.'.,.,.g.Q j h.1.a.",
"b.a.i.j.k.4.l.m.e i e m.n.9.k.o.i.a.a.",
"b.a.p.q.o.4.r.e.e.r.e.e.r.s.o.t.u.a.a.",
"b.a.a.a.v.w.x.y.z.Q z.A.B.C.D.a.a.a.a.",
"b.a.a.a.a.c.E.F.G.H.G.I.E.p.a.a.a.a.a.",
"b.a.a.a.a.a.a.a.a.a.a.a.a.a.a.a.a.a.a.",
"b.a.a.a.a.a.a.a.a.a.a.a.a.a.a.a.a.a.a.",
"b.a.a.a.a.a.a.a.a.a.a.a.a.a.a.a.a.a.a.",
"b.a.a.a.a.a.a.a.a.a.a.a.a.a.a.a.a.a.a."};
