/* XPM */
static char * hide_active_xpm[] = {
"19 29 182 2",
"  	c None",
". 	c #5F5E57",
"+ 	c #5E5C55",
"@ 	c #5E5D55",
"# 	c #5B5A53",
"$ 	c #595750",
"% 	c #56554D",
"& 	c #54524A",
"* 	c #525049",
"= 	c #504F47",
"- 	c #4D4C45",
"; 	c #4B4943",
"> 	c #4B4942",
", 	c #504E47",
"' 	c #525048",
") 	c #4E4C45",
"! 	c #46443E",
"~ 	c #393834",
"{ 	c #2F2E2C",
"] 	c #262624",
"^ 	c #212120",
"/ 	c #262524",
"( 	c #2E2E2B",
"_ 	c #45443D",
": 	c #4E4C44",
"< 	c #504E46",
"[ 	c #4F4D45",
"} 	c #4A4841",
"| 	c #393833",
"1 	c #242423",
"2 	c #202020",
"3 	c #252525",
"4 	c #272727",
"5 	c #292929",
"6 	c #282828",
"7 	c #212121",
"8 	c #373632",
"9 	c #494740",
"0 	c #4D4B43",
"a 	c #4C4A43",
"b 	c #44423C",
"c 	c #2E2D2B",
"d 	c #1F1F1F",
"e 	c #242424",
"f 	c #494949",
"g 	c #757575",
"h 	c #8E8E8E",
"i 	c #9A9A9A",
"j 	c #8F8F8F",
"k 	c #777777",
"l 	c #4C4C4C",
"m 	c #2D2C2A",
"n 	c #43413C",
"o 	c #4A4942",
"p 	c #47453E",
"q 	c #31302D",
"r 	c #1E1E1E",
"s 	c #323232",
"t 	c #707070",
"u 	c #9D9D9D",
"v 	c #A4A4A4",
"w 	c #747474",
"x 	c #343434",
"y 	c #302F2D",
"z 	c #48463F",
"A 	c #393734",
"B 	c #787878",
"C 	c #A3A3A3",
"D 	c #7B7B7B",
"E 	c #232322",
"F 	c #383733",
"G 	c #47453F",
"H 	c #3F3E39",
"I 	c #2E2E2C",
"J 	c #232323",
"K 	c #636363",
"L 	c #9E9E9E",
"M 	c #686868",
"N 	c #2D2D2B",
"O 	c #403F39",
"P 	c #3A3A36",
"Q 	c #2D2D2C",
"R 	c #4A4A4A",
"S 	c #878787",
"T 	c #8A8A8A",
"U 	c #4D4D4D",
"V 	c #3B3A36",
"W 	c #393835",
"X 	c #2D2D2D",
"Y 	c #5B5B5B",
"Z 	c #949494",
"` 	c #A2A2A2",
" .	c #9F9F9F",
"..	c #969696",
"+.	c #5F5F5F",
"@.	c #383835",
"#.	c #2F2F2F",
"$.	c #696969",
"%.	c #A0A0A0",
"&.	c #717171",
"*.	c #6D6D6D",
"=.	c #6E6E6E",
"-.	c #393836",
";.	c #3B3B38",
">.	c #343433",
",.	c #6B6B6B",
"'.	c #434343",
").	c #333333",
"!.	c #3C3B3A",
"~.	c #3D3C3A",
"{.	c #393938",
"].	c #646464",
"^.	c #979797",
"/.	c #939393",
"(.	c #898989",
"_.	c #868686",
":.	c #929292",
"<.	c #989898",
"[.	c #383838",
"}.	c #3D3D3B",
"|.	c #3E3D3A",
"1.	c #3E3E3D",
"2.	c #5A5A5A",
"3.	c #8B8B8B",
"4.	c #919191",
"5.	c #8D8D8D",
"6.	c #5D5D5D",
"7.	c #3E3D3B",
"8.	c #3D3C39",
"9.	c #434342",
"0.	c #474747",
"a.	c #727272",
"b.	c #909090",
"c.	c #3E3E3A",
"d.	c #3B3A37",
"e.	c #434340",
"f.	c #484847",
"g.	c #565656",
"h.	c #7F7F7F",
"i.	c #8C8C8C",
"j.	c #818181",
"k.	c #575757",
"l.	c #474746",
"m.	c #434341",
"n.	c #3C3B37",
"o.	c #494947",
"p.	c #888888",
"q.	c #858585",
"r.	c #848484",
"s.	c #797979",
"t.	c #4A4A49",
"u.	c #42413E",
"v.	c #4E4E4D",
"w.	c #535353",
"x.	c #656565",
"y.	c #767676",
"z.	c #737373",
"A.	c #666666",
"B.	c #4E4D4C",
"C.	c #43423F",
"D.	c #3D3C38",
"E.	c #42423E",
"F.	c #4D4C4B",
"G.	c #555555",
"H.	c #585858",
"I.	c #595959",
"J.	c #565555",
"K.	c #40403C",
"L.	c #494846",
"M.	c #50504E",
"N.	c #545453",
"O.	c #585857",
"P.	c #595958",
"Q.	c #545352",
"R.	c #494946",
"S.	c #41403D",
"T.	c #42413D",
"U.	c #464542",
"V.	c #494845",
"W.	c #4B4A47",
"X.	c #454541",
"Y.	c #3E3D39",
". . . . . . . . . . . . . . . . . . . ",
"+ + + + + + + + + + + @ @ @ @ @ @ @ @ ",
"# # # # # # # # # # # # # # # # # # # ",
"$ $ $ $ $ $ $ $ $ $ $ $ $ $ $ $ $ $ $ ",
"% % % % % % % % % % % % % % % % % % % ",
"& & & & & * = - ; > > - , ' & & & & & ",
"' ' ' ' ) ! ~ { ] ^ / ( ~ _ : ' ' ' ' ",
"< [ : } | 1 2 3 4 5 6 3 7 1 8 9 : [ [ ",
"0 a b c d e f g h i j k l 3 2 m n a a ",
"o p q r s t u v v v v v u w x r y z } ",
"z A 1 s B C v v v v v v v C D x E F G ",
"H I J K u v v v v v v v v v L M J N O ",
"P Q R S C v v v v v v v v v C T U Q V ",
"W X Y Z `  .u u u u u u u  .` ..+.Q W ",
"@.#.$.L %.&.R R R R R R R *.%. .=.#.-.",
";.>.,. .%.*.'.'.'.'.'.'.'.M  .%.t ).!.",
"~.{.].^.%./.(.S _._._.S (.:.%.<.M [.}.",
"|.1.2.3.L i ^.Z :.4.:.Z ..i L 5.6.1.7.",
"8.9.0.a.^.^./.4.j h j b./...^.g 0.9.c.",
"d.e.f.g.h.Z j i.T T T i.j /.j.k.l.m.n.",
"V |.o.U 2.B (.p.q.r.q.p.(.s.Y U t.c.n.",
"V n.u.v.w.g.x.a.y.k k z.A.k.w.B.C.n.n.",
"V n.D.E.F.G.H.2.2.I.I.2.H.J.B.C.8.n.n.",
"V n.n.D.K.L.M.N.O.2.P.Q.M.R.S.n.n.n.n.",
"V n.n.n.n.8.T.U.V.W.V.X.T.Y.n.n.n.n.n.",
"V n.n.n.n.n.n.n.n.n.n.n.n.n.n.n.n.n.n.",
"V n.n.n.n.n.n.n.n.n.n.n.n.n.n.n.n.n.n.",
"V n.n.n.n.n.n.n.n.n.n.n.n.n.n.n.n.n.n.",
"V n.n.n.n.n.n.n.n.n.n.n.n.n.n.n.n.n.n."};
