/* XPM */
static char * hide_prelight_xpm[] = {
"19 29 226 2",
"  	c None",
". 	c #5F5E57",
"+ 	c #5E5C55",
"@ 	c #5E5D55",
"# 	c #5B5A53",
"$ 	c #595750",
"% 	c #56554D",
"& 	c #54524A",
"* 	c #525049",
"= 	c #504F47",
"- 	c #4E4D45",
"; 	c #4C4A44",
"> 	c #4C4A42",
", 	c #4C4A43",
"' 	c #504E47",
") 	c #525048",
"! 	c #4F4D45",
"~ 	c #47453E",
"{ 	c #3C3A35",
"] 	c #33312D",
"^ 	c #2A2926",
"/ 	c #262523",
"( 	c #2A2826",
"_ 	c #32312D",
": 	c #3B3A35",
"< 	c #46453D",
"[ 	c #504E46",
"} 	c #4E4C44",
"| 	c #4A4841",
"1 	c #3B3A34",
"2 	c #292926",
"3 	c #272624",
"4 	c #2C2B29",
"5 	c #2E2E2C",
"6 	c #30302E",
"7 	c #2F2E2C",
"8 	c #292825",
"9 	c #3A3933",
"0 	c #4A4740",
"a 	c #4D4B43",
"b 	c #45423C",
"c 	c #32302E",
"d 	c #252423",
"e 	c #2B2A29",
"f 	c #575655",
"g 	c #8A8A87",
"h 	c #A7A7A4",
"i 	c #B4B4B2",
"j 	c #A8A8A5",
"k 	c #8B8B89",
"l 	c #5A5A58",
"m 	c #2C2B2A",
"n 	c #312F2C",
"o 	c #44423D",
"p 	c #4A4942",
"q 	c #48463E",
"r 	c #34332F",
"s 	c #232221",
"t 	c #3C3B39",
"u 	c #848382",
"v 	c #B7B7B6",
"w 	c #C0C0BE",
"x 	c #B8B8B7",
"y 	c #888886",
"z 	c #3E3D3B",
"A 	c #33312E",
"B 	c #48463F",
"C 	c #3B3935",
"D 	c #8C8C8B",
"E 	c #BFBFBE",
"F 	c #91918F",
"G 	c #3A3934",
"H 	c #47453F",
"I 	c #42413A",
"J 	c #33322F",
"K 	c #2A2928",
"L 	c #747373",
"M 	c #B8B8B6",
"N 	c #B9B9B7",
"O 	c #7A7979",
"P 	c #32322E",
"Q 	c #414039",
"R 	c #3C3C38",
"S 	c #333230",
"T 	c #565653",
"U 	c #9E9E9C",
"V 	c #BFBFBD",
"W 	c #A2A29F",
"X 	c #5A5957",
"Y 	c #3D3C38",
"Z 	c #343332",
"` 	c #6B6A68",
" .	c #AEADAB",
"..	c #BEBEBC",
"+.	c #BBBBB9",
"@.	c #BABAB8",
"#.	c #B0AFAD",
"$.	c #706F6D",
"%.	c #343431",
"&.	c #3D3C37",
"*.	c #3E3E39",
"=.	c #373735",
"-.	c #7A7A78",
";.	c #848483",
">.	c #565656",
",.	c #7F7F7E",
"'.	c #80807E",
").	c #373635",
"!.	c #3E3D3A",
"~.	c #41413C",
"{.	c #3C3C39",
"].	c #7E7E7C",
"^.	c #BABAB9",
"/.	c #4E4E4E",
"(.	c #7A7A79",
"_.	c #838382",
":.	c #3B3B39",
"<.	c #41403E",
"[.	c #42413E",
"}.	c #41413E",
"|.	c #757573",
"1.	c #B1B1AF",
"2.	c #ACACA9",
"3.	c #A0A09D",
"4.	c #9E9E9A",
"5.	c #9D9C99",
"6.	c #ABABA8",
"7.	c #BBBBB8",
"8.	c #B2B2B0",
"9.	c #41413F",
"0.	c #42423F",
"a.	c #42413D",
"b.	c #474644",
"c.	c #6A6A68",
"d.	c #A3A3A1",
"e.	c #B9B9B5",
"f.	c #B4B4B0",
"g.	c #B0B0AB",
"h.	c #AEADA8",
"i.	c #ACABA6",
"j.	c #ABAAA6",
"k.	c #ADADA8",
"l.	c #A5A5A3",
"m.	c #6D6D6B",
"n.	c #43423F",
"o.	c #3F3E3A",
"p.	c #4C4C49",
"q.	c #545352",
"r.	c #868683",
"s.	c #B0B0AC",
"t.	c #B1B1AC",
"u.	c #ADACA7",
"v.	c #AAA9A3",
"w.	c #A8A7A1",
"x.	c #A7A7A0",
"y.	c #B1B1AD",
"z.	c #4D4C4A",
"A.	c #40403B",
"B.	c #3B3A37",
"C.	c #4A4945",
"D.	c #53524F",
"E.	c #656562",
"F.	c #959590",
"G.	c #AEADA7",
"H.	c #A9A8A2",
"I.	c #A5A49E",
"J.	c #A3A29A",
"K.	c #A2A199",
"L.	c #ADADA7",
"M.	c #979793",
"N.	c #676764",
"O.	c #52524F",
"P.	c #4A4A46",
"Q.	c #3C3B37",
"R.	c #3B3A36",
"S.	c #403F3C",
"T.	c #52524E",
"U.	c #5A5A57",
"V.	c #696966",
"W.	c #8D8D88",
"X.	c #A1A09A",
"Y.	c #A1A098",
"Z.	c #9D9C94",
"`.	c #9C9B92",
" +	c #A09F98",
".+	c #8F8E89",
"++	c #6B6A67",
"@+	c #535350",
"#+	c #464541",
"$+	c #585855",
"%+	c #61615E",
"&+	c #666663",
"*+	c #767672",
"=+	c #86867F",
"-+	c #8C8B82",
";+	c #8D8C83",
">+	c #8C8B83",
",+	c #87867F",
"'+	c #787773",
")+	c #5A5955",
"!+	c #474642",
"~+	c #3E3D39",
"{+	c #464641",
"]+	c #565552",
"^+	c #626260",
"/+	c #686865",
"(+	c #6A6A66",
"_+	c #696964",
":+	c #686863",
"<+	c #636260",
"[+	c #565553",
"}+	c #3D3C39",
"|+	c #42423E",
"1+	c #4F4E4B",
"2+	c #595956",
"3+	c #5F5F5D",
"4+	c #666662",
"5+	c #676763",
"6+	c #605F5C",
"7+	c #50504B",
"8+	c #44433F",
"9+	c #494845",
"0+	c #4E4D49",
"a+	c #51504C",
"b+	c #494944",
"c+	c #45443F",
". . . . . . . . . . . . . . . . . . . ",
"+ + + + + + + + + + + @ @ @ @ @ @ @ @ ",
"# # # # # # # # # # # # # # # # # # # ",
"$ $ $ $ $ $ $ $ $ $ $ $ $ $ $ $ $ $ $ ",
"% % % % % % % % % % % % % % % % % % % ",
"& & & & & * = - ; > , - ' ) & & & & & ",
") ) ) ) ! ~ { ] ^ / ( _ : < ! ) ) ) ) ",
"[ ! } | 1 2 3 4 5 6 7 4 3 8 9 0 } ! ! ",
"a , b c d e f g h i j k l m d n o , , ",
"p q r s t u v w w w w w x y z s A B | ",
"B C 2 t D E w w w w w w w E F z 8 G H ",
"I J K L M w w w w w w w w w N O K P Q ",
"R S T U V w w w w w w w w w V W X J Y ",
"Y Z `  ...+.M M M M M M M @...#.$.%.&.",
"*.=.-.N +.;.>.>.>.>.>.>.>.,.+.@.'.).!.",
"~.{.].^.+.,./././././././.(.+.+._.:.<.",
"[.}.|.1.+.2.3.4.5.5.5.4.3.6.7.8.-.9.0.",
"a.b.c.d.e.f.g.h.i.j.i.k.g.f.e.l.m.b.n.",
"o.p.q.r.s.t.u.v.w.x.w.v.u.t.y.g q.z.A.",
"B.C.D.E.F.G.H.I.J.K.J.I.H.L.M.N.O.P.Q.",
"R.S.T.U.V.W.X.Y.Z.`.Z. +X..+++U.@+A.Q.",
"R.Y #+$+%+&+*+=+-+;+>+,+'+&+%+)+!+Y Q.",
"R.Q.~+{+]+^+/+(+_+:+_+(+/+<+[+!+}+Q.Q.",
"R.Q.Q.Y |+1+2+3+4+V.5+6+2+7+n.Q.Q.Q.Q.",
"R.Q.Q.Q.Q.!.8+9+0+a+0+b+c+~+Q.Q.Q.Q.Q.",
"R.Q.Q.Q.Q.Q.Q.Q.Q.Q.Q.Q.Q.Q.Q.Q.Q.Q.Q.",
"R.Q.Q.Q.Q.Q.Q.Q.Q.Q.Q.Q.Q.Q.Q.Q.Q.Q.Q.",
"R.Q.Q.Q.Q.Q.Q.Q.Q.Q.Q.Q.Q.Q.Q.Q.Q.Q.Q.",
"R.Q.Q.Q.Q.Q.Q.Q.Q.Q.Q.Q.Q.Q.Q.Q.Q.Q.Q."};
