/* XPM */
static char * maximize_prelight_xpm[] = {
"19 29 233 2",
"  	c None",
". 	c #5F5E57",
"+ 	c #5E5C55",
"@ 	c #5E5D55",
"# 	c #5B5A53",
"$ 	c #595750",
"% 	c #56554D",
"& 	c #54524A",
"* 	c #525049",
"= 	c #504F47",
"- 	c #4E4D45",
"; 	c #4C4A44",
"> 	c #4C4A42",
", 	c #4C4A43",
"' 	c #504E47",
") 	c #525048",
"! 	c #4F4D45",
"~ 	c #47453E",
"{ 	c #3C3A35",
"] 	c #33312D",
"^ 	c #2A2926",
"/ 	c #262523",
"( 	c #2A2826",
"_ 	c #32312D",
": 	c #3B3A35",
"< 	c #46453D",
"[ 	c #504E46",
"} 	c #4E4C44",
"| 	c #4A4841",
"1 	c #3B3A34",
"2 	c #292926",
"3 	c #272624",
"4 	c #2C2B29",
"5 	c #2E2E2C",
"6 	c #30302E",
"7 	c #2F2E2C",
"8 	c #292825",
"9 	c #3A3933",
"0 	c #4A4740",
"a 	c #4D4B43",
"b 	c #45423C",
"c 	c #32302E",
"d 	c #252423",
"e 	c #2B2A29",
"f 	c #575655",
"g 	c #8A8A87",
"h 	c #A7A7A4",
"i 	c #B4B4B2",
"j 	c #A8A8A5",
"k 	c #8B8B89",
"l 	c #5A5A58",
"m 	c #2C2B2A",
"n 	c #312F2C",
"o 	c #44423D",
"p 	c #4A4942",
"q 	c #48463E",
"r 	c #34332F",
"s 	c #232221",
"t 	c #3C3B39",
"u 	c #838381",
"v 	c #B7B7B5",
"w 	c #BFBFBD",
"x 	c #B8B8B6",
"y 	c #888786",
"z 	c #3E3D3B",
"A 	c #33312E",
"B 	c #48463F",
"C 	c #3B3935",
"D 	c #B3B3B1",
"E 	c #B7B7B6",
"F 	c #8F8F8E",
"G 	c #3A3934",
"H 	c #47453F",
"I 	c #42413A",
"J 	c #33322F",
"K 	c #2A2928",
"L 	c #747373",
"M 	c #B3B3B2",
"N 	c #7F7F7E",
"O 	c #4E4E4E",
"P 	c #7A7A79",
"Q 	c #7A7979",
"R 	c #32322E",
"S 	c #414039",
"T 	c #3C3C38",
"U 	c #333230",
"V 	c #565653",
"W 	c #9E9E9C",
"X 	c #BBBBB9",
"Y 	c #A2A29F",
"Z 	c #5A5957",
"` 	c #3D3C38",
" .	c #343332",
"..	c #6B6A68",
"+.	c #AEADAB",
"@.	c #80807F",
"#.	c #B1B1AF",
"$.	c #848483",
"%.	c #B0AFAD",
"&.	c #706F6D",
"*.	c #343431",
"=.	c #3D3C37",
"-.	c #3E3E39",
";.	c #373735",
">.	c #7A7A78",
",.	c #B9B9B7",
"'.	c #BABAB8",
").	c #BDBDBB",
"!.	c #BCBCBA",
"~.	c #898988",
"{.	c #80807E",
"].	c #373635",
"^.	c #3E3D3A",
"/.	c #41413C",
"(.	c #3C3C39",
"_.	c #7E7E7C",
":.	c #BABAB9",
"<.	c #818180",
"[.	c #B5B5B2",
"}.	c #B8B8B5",
"|.	c #B7B7B4",
"1.	c #B5B5B3",
"2.	c #868684",
"3.	c #838382",
"4.	c #3B3B39",
"5.	c #41403E",
"6.	c #42413E",
"7.	c #41413E",
"8.	c #757573",
"9.	c #7D7D7C",
"0.	c #7F7F7D",
"a.	c #B0B0AC",
"b.	c #B3B2AE",
"c.	c #B2B1AD",
"d.	c #787877",
"e.	c #B2B2B0",
"f.	c #41413F",
"g.	c #42423F",
"h.	c #42413D",
"i.	c #474644",
"j.	c #6A6A68",
"k.	c #A3A3A1",
"l.	c #B5B5B1",
"m.	c #7B7B79",
"n.	c #7B7B78",
"o.	c #A7A6A1",
"p.	c #A7A7A1",
"q.	c #7F7F7C",
"r.	c #777775",
"s.	c #B4B4B1",
"t.	c #A5A5A3",
"u.	c #6D6D6B",
"v.	c #43423F",
"w.	c #3F3E3A",
"x.	c #4C4C49",
"y.	c #545352",
"z.	c #868683",
"A.	c #ACACA8",
"B.	c #797977",
"C.	c #575756",
"D.	c #5F5F5E",
"E.	c #575757",
"F.	c #4D4C4A",
"G.	c #40403B",
"H.	c #3B3A37",
"I.	c #4A4945",
"J.	c #53524F",
"K.	c #656562",
"L.	c #93938F",
"M.	c #9E9D98",
"N.	c #8E8D89",
"O.	c #8B8A85",
"P.	c #898882",
"Q.	c #888881",
"R.	c #8E8D88",
"S.	c #9C9B97",
"T.	c #959591",
"U.	c #676764",
"V.	c #52524F",
"W.	c #4A4A46",
"X.	c #3C3B37",
"Y.	c #3B3A36",
"Z.	c #403F3C",
"`.	c #52524E",
" +	c #5A5A57",
".+	c #696966",
"++	c #8C8B87",
"@+	c #9F9F98",
"#+	c #9F9E97",
"$+	c #9C9B92",
"%+	c #9A9991",
"&+	c #9F9E96",
"*+	c #8D8D88",
"=+	c #6A6A67",
"-+	c #535350",
";+	c #464541",
">+	c #585855",
",+	c #61615E",
"'+	c #666663",
")+	c #767672",
"!+	c #86867F",
"~+	c #8C8B82",
"{+	c #8D8C83",
"]+	c #8C8B83",
"^+	c #87867F",
"/+	c #787773",
"(+	c #5A5955",
"_+	c #474642",
":+	c #3E3D39",
"<+	c #464641",
"[+	c #565552",
"}+	c #626260",
"|+	c #686865",
"1+	c #6A6A66",
"2+	c #696964",
"3+	c #686863",
"4+	c #636260",
"5+	c #565553",
"6+	c #3D3C39",
"7+	c #42423E",
"8+	c #4F4E4B",
"9+	c #595956",
"0+	c #5F5F5D",
"a+	c #666662",
"b+	c #676763",
"c+	c #605F5C",
"d+	c #50504B",
"e+	c #44433F",
"f+	c #494845",
"g+	c #4E4D49",
"h+	c #51504C",
"i+	c #494944",
"j+	c #45443F",
". . . . . . . . . . . . . . . . . . . ",
"+ + + + + + + + + + + @ @ @ @ @ @ @ @ ",
"# # # # # # # # # # # # # # # # # # # ",
"$ $ $ $ $ $ $ $ $ $ $ $ $ $ $ $ $ $ $ ",
"% % % % % % % % % % % % % % % % % % % ",
"& & & & & * = - ; > , - ' ) & & & & & ",
") ) ) ) ! ~ { ] ^ / ( _ : < ! ) ) ) ) ",
"[ ! } | 1 2 3 4 5 6 7 4 3 8 9 0 } ! ! ",
"a , b c d e f g h i j k l m d n o , , ",
"p q r s t u v w w w w w x y z s A B | ",
"B C 2 t k x D D D D D D D E F z 8 G H ",
"I J K L M N O O O O O O O P i Q K R S ",
"T U V W X N O O O O O O O P X Y Z J ` ",
"`  ...+.X N @.#.D D D #.$.P X %.&.*.=.",
"-.;.>.,.X N $.'.).!.).'.~.P X '.{.].^.",
"/.(._.:.X N <.[.}.|.}.1.2.P X X 3.4.5.",
"6.7.8.#.x 9.0.a.b.c.b.a.u d.}.e.>.f.g.",
"h.i.j.k.l.m.n.o.p.o.p.o.q.r.s.t.u.i.v.",
"w.x.y.z.A.B.C.D.D.D.D.D.E.8.A.g y.F.G.",
"H.I.J.K.L.M.N.O.P.Q.P.O.R.S.T.U.V.W.X.",
"Y.Z.`. +.+++@+#+$+%+$+&+@+*+=+ +-+G.X.",
"Y.` ;+>+,+'+)+!+~+{+]+^+/+'+,+(+_+` X.",
"Y.X.:+<+[+}+|+1+2+3+2+1+|+4+5+_+6+X.X.",
"Y.X.X.` 7+8+9+0+a+.+b+c+9+d+v.X.X.X.X.",
"Y.X.X.X.X.^.e+f+g+h+g+i+j+:+X.X.X.X.X.",
"Y.X.X.X.X.X.X.X.X.X.X.X.X.X.X.X.X.X.X.",
"Y.X.X.X.X.X.X.X.X.X.X.X.X.X.X.X.X.X.X.",
"Y.X.X.X.X.X.X.X.X.X.X.X.X.X.X.X.X.X.X.",
"Y.X.X.X.X.X.X.X.X.X.X.X.X.X.X.X.X.X.X."};
