/* XPM */
static char * maximize_active_xpm[] = {
"19 29 183 2",
"  	c None",
". 	c #5F5E57",
"+ 	c #5E5C55",
"@ 	c #5E5D55",
"# 	c #5B5A53",
"$ 	c #595750",
"% 	c #56554D",
"& 	c #54524A",
"* 	c #525049",
"= 	c #504F47",
"- 	c #4D4C45",
"; 	c #4B4943",
"> 	c #4B4942",
", 	c #504E47",
"' 	c #525048",
") 	c #4E4C45",
"! 	c #46443E",
"~ 	c #393834",
"{ 	c #2F2E2C",
"] 	c #262624",
"^ 	c #212120",
"/ 	c #262524",
"( 	c #2E2E2B",
"_ 	c #45443D",
": 	c #4E4C44",
"< 	c #504E46",
"[ 	c #4F4D45",
"} 	c #4A4841",
"| 	c #393833",
"1 	c #242423",
"2 	c #202020",
"3 	c #252525",
"4 	c #282828",
"5 	c #292929",
"6 	c #212121",
"7 	c #373632",
"8 	c #494740",
"9 	c #4D4B43",
"0 	c #4C4A43",
"a 	c #44423C",
"b 	c #2E2D2B",
"c 	c #1F1F1F",
"d 	c #242424",
"e 	c #4A4A4A",
"f 	c #767676",
"g 	c #8F8F8F",
"h 	c #9B9B9B",
"i 	c #909090",
"j 	c #787878",
"k 	c #4D4D4D",
"l 	c #2D2C2A",
"m 	c #43413C",
"n 	c #4A4942",
"o 	c #47453E",
"p 	c #31302D",
"q 	c #1E1E1E",
"r 	c #333333",
"s 	c #707070",
"t 	c #9D9D9D",
"u 	c #A4A4A4",
"v 	c #9E9E9E",
"w 	c #747474",
"x 	c #353535",
"y 	c #302F2D",
"z 	c #48463F",
"A 	c #393734",
"B 	c #323232",
"C 	c #777777",
"D 	c #9A9A9A",
"E 	c #7B7B7B",
"F 	c #343434",
"G 	c #232322",
"H 	c #383733",
"I 	c #47453F",
"J 	c #3F3E39",
"K 	c #2E2E2C",
"L 	c #232323",
"M 	c #636363",
"N 	c #6D6D6D",
"O 	c #434343",
"P 	c #696969",
"Q 	c #686868",
"R 	c #2D2D2B",
"S 	c #403F39",
"T 	c #3A3A36",
"U 	c #2D2D2C",
"V 	c #888888",
"W 	c #A1A1A1",
"X 	c #A0A0A0",
"Y 	c #8B8B8B",
"Z 	c #3B3A36",
"` 	c #3A3936",
" .	c #2D2D2D",
"..	c #5B5B5B",
"+.	c #959595",
"@.	c #979797",
"#.	c #999999",
"$.	c #989898",
"%.	c #717171",
"&.	c #969696",
"*.	c #5F5F5F",
"=.	c #383835",
"-.	c #2F2F2F",
";.	c #9F9F9F",
">.	c #A2A2A2",
",.	c #6E6E6E",
"'.	c #393836",
").	c #3B3B38",
"!.	c #343433",
"~.	c #6B6B6B",
"{.	c #6F6F6F",
"].	c #9C9C9C",
"^.	c #737373",
"/.	c #3C3B3A",
"(.	c #3D3C3A",
"_.	c #393938",
":.	c #656565",
"<.	c #6C6C6C",
"[.	c #676767",
"}.	c #383838",
"|.	c #3D3D3B",
"1.	c #3E3D3A",
"2.	c #3E3E3D",
"3.	c #8C8C8C",
"4.	c #6A6A6A",
"5.	c #8E8E8E",
"6.	c #666666",
"7.	c #5D5D5D",
"8.	c #3E3D3B",
"9.	c #3D3C39",
"0.	c #434342",
"a.	c #484848",
"b.	c #949494",
"c.	c #525252",
"d.	c #4B4B4B",
"e.	c #3E3E3A",
"f.	c #3B3A37",
"g.	c #434340",
"h.	c #484847",
"i.	c #575757",
"j.	c #7E7E7E",
"k.	c #868686",
"l.	c #797979",
"m.	c #757575",
"n.	c #858585",
"o.	c #808080",
"p.	c #585858",
"q.	c #474746",
"r.	c #434341",
"s.	c #3C3B37",
"t.	c #494947",
"u.	c #4E4E4E",
"v.	c #5A5A5A",
"w.	c #878787",
"x.	c #838383",
"y.	c #4A4A49",
"z.	c #43423F",
"A.	c #4E4E4D",
"B.	c #535353",
"C.	c #4F4E4D",
"D.	c #444340",
"E.	c #3E3D39",
"F.	c #42423E",
"G.	c #4D4C4B",
"H.	c #555555",
"I.	c #595959",
"J.	c #565555",
"K.	c #4E4D4C",
"L.	c #3D3C38",
"M.	c #40403C",
"N.	c #494846",
"O.	c #50504E",
"P.	c #545453",
"Q.	c #585857",
"R.	c #595958",
"S.	c #555453",
"T.	c #494946",
"U.	c #41403D",
"V.	c #42413D",
"W.	c #464542",
"X.	c #494845",
"Y.	c #4B4A47",
"Z.	c #454541",
". . . . . . . . . . . . . . . . . . . ",
"+ + + + + + + + + + + @ @ @ @ @ @ @ @ ",
"# # # # # # # # # # # # # # # # # # # ",
"$ $ $ $ $ $ $ $ $ $ $ $ $ $ $ $ $ $ $ ",
"% % % % % % % % % % % % % % % % % % % ",
"& & & & & * = - ; > > - , ' & & & & & ",
"' ' ' ' ) ! ~ { ] ^ / ( ~ _ : ' ' ' ' ",
"< [ : } | 1 2 3 4 5 4 3 6 1 7 8 : [ [ ",
"9 0 a b c d e f g h i j k 3 2 l m 0 0 ",
"n o p q r s t u u u u u v w x q y z } ",
"z A 1 B C t D D D D D D D t E F G H I ",
"J K L M D N O O O O O O O P D Q L R S ",
"T U e V W N O O O O O O O P X Y k U Z ",
"`  ...+.W N N @.#.#.#.$.%.P X &.*.U ` ",
"=.-.P ;.W N %.X >.W >.X f P X ;.,.-.'.",
").!.~.X W N {.].v t v ].^.P X X s r /.",
"(._.:.$.v <.N @.#.$.#.@.s [.v #.P }.|.",
"1.2...3.h 4.P g g 5.g g N 6.D 5.7.2.8.",
"9.0.a.^.b.Q e c.c.c.c.c.d.:.b.f a.0.e.",
"f.g.h.i.j.k.l.C m.w m.C l.n.o.p.q.r.s.",
"Z 1.t.u.v.j V w.n.x.n.w.V l...u.y.e.s.",
"Z s.z.A.B.i.:.^.C j C ^.6.p.B.C.D.s.s.",
"Z s.E.F.G.H.I.v.v.I.v.v.I.J.K.D.9.s.s.",
"Z s.s.L.M.N.O.P.Q.v.R.S.O.T.U.s.s.s.s.",
"Z s.s.s.s.9.V.W.X.Y.X.Z.V.E.s.s.s.s.s.",
"Z s.s.s.s.s.s.s.s.s.s.s.s.s.s.s.s.s.s.",
"Z s.s.s.s.s.s.s.s.s.s.s.s.s.s.s.s.s.s.",
"Z s.s.s.s.s.s.s.s.s.s.s.s.s.s.s.s.s.s.",
"Z s.s.s.s.s.s.s.s.s.s.s.s.s.s.s.s.s.s."};
