/* XPM */
static char * maximize_pressed_xpm[] = {
"19 29 172 2",
"  	c None",
". 	c #5F5E57",
"+ 	c #5E5C55",
"@ 	c #5E5D55",
"# 	c #5B5A53",
"$ 	c #595750",
"% 	c #56554D",
"& 	c #54524A",
"* 	c #525049",
"= 	c #4F4E46",
"- 	c #4D4C45",
"; 	c #4A4842",
"> 	c #4A4841",
", 	c #4B4942",
"' 	c #4F4D46",
") 	c #525048",
"! 	c #4E4C45",
"~ 	c #45433D",
"{ 	c #373632",
"] 	c #2C2B29",
"^ 	c #222220",
"/ 	c #1D1D1C",
"( 	c #222120",
"_ 	c #2B2B28",
": 	c #44433C",
"< 	c #4E4C44",
"[ 	c #504E46",
"} 	c #4F4D45",
"| 	c #494740",
"1 	c #373631",
"2 	c #212120",
"3 	c #1C1C1C",
"4 	c #202020",
"5 	c #222222",
"6 	c #232323",
"7 	c #363531",
"8 	c #48463F",
"9 	c #4D4B43",
"0 	c #4C4A43",
"a 	c #43413B",
"b 	c #1B1B1B",
"c 	c #1F1F1F",
"d 	c #404040",
"e 	c #676767",
"f 	c #7C7C7C",
"g 	c #868686",
"h 	c #7D7D7D",
"i 	c #686868",
"j 	c #434343",
"k 	c #2A2927",
"l 	c #42403B",
"m 	c #4A4942",
"n 	c #47453E",
"o 	c #2F2E2B",
"p 	c #1A1A1A",
"q 	c #2C2C2C",
"r 	c #616161",
"s 	c #888888",
"t 	c #8E8E8E",
"u 	c #898989",
"v 	c #656565",
"w 	c #2D2D2D",
"x 	c #2D2C2A",
"y 	c #373532",
"z 	c #858585",
"A 	c #6B6B6B",
"B 	c #2E2E2E",
"C 	c #20201F",
"D 	c #47453F",
"E 	c #3F3E39",
"F 	c #2B2B29",
"G 	c #565656",
"H 	c #5F5F5F",
"I 	c #3A3A3A",
"J 	c #5B5B5B",
"K 	c #5A5A5A",
"L 	c #2A2A28",
"M 	c #3F3E38",
"N 	c #393935",
"O 	c #292928",
"P 	c #767676",
"Q 	c #8B8B8B",
"R 	c #797979",
"S 	c #3A3935",
"T 	c #373633",
"U 	c #282828",
"V 	c #4F4F4F",
"W 	c #818181",
"X 	c #838383",
"Y 	c #848484",
"Z 	c #626262",
"` 	c #828282",
" .	c #535353",
"..	c #282827",
"+.	c #363532",
"@.	c #353532",
"#.	c #292929",
"$.	c #8A8A8A",
"%.	c #8D8D8D",
"&.	c #8C8C8C",
"*.	c #666666",
"=.	c #353432",
"-.	c #373734",
";.	c #2E2E2D",
">.	c #5D5D5D",
",.	c #606060",
"'.	c #878787",
").	c #646464",
"!.	c #373635",
"~.	c #3A3937",
"{.	c #333332",
"].	c #575757",
"^.	c #5E5E5E",
"/.	c #595959",
"(.	c #323232",
"_.	c #3A3A38",
":.	c #3B3A37",
"<.	c #383837",
"[.	c #7B7B7B",
"}.	c #585858",
"|.	c #515151",
"1.	c #373736",
"2.	c #3C3B39",
"3.	c #3D3D3C",
"4.	c #3E3E3E",
"5.	c #636363",
"6.	c #808080",
"7.	c #474747",
"8.	c #414141",
"9.	c #3C3C38",
"0.	c #3F3F3C",
"a.	c #3F3F3E",
"b.	c #4B4B4B",
"c.	c #6D6D6D",
"d.	c #747474",
"e.	c #696969",
"f.	c #737373",
"g.	c #6F6F6F",
"h.	c #4C4C4C",
"i.	c #3F3F3D",
"j.	c #3C3B37",
"k.	c #3B3A36",
"l.	c #3D3C39",
"m.	c #424240",
"n.	c #4E4E4E",
"o.	c #757575",
"p.	c #727272",
"q.	c #434342",
"r.	c #403F3C",
"s.	c #464645",
"t.	c #484848",
"u.	c #474645",
"v.	c #3D3C38",
"w.	c #40403C",
"x.	c #4D4D4D",
"y.	c #4B4A4A",
"z.	c #41403D",
"A.	c #3C3B38",
"B.	c #3E3E3A",
"C.	c #444341",
"D.	c #494947",
"E.	c #4B4B4A",
"F.	c #4E4E4D",
"G.	c #4C4B4A",
"H.	c #484846",
"I.	c #454542",
"J.	c #3F3E3B",
"K.	c #403F3B",
"L.	c #43423F",
"M.	c #454441",
"N.	c #464542",
"O.	c #42423E",
". . . . . . . . . . . . . . . . . . . ",
"+ + + + + + + + + + + @ @ @ @ @ @ @ @ ",
"# # # # # # # # # # # # # # # # # # # ",
"$ $ $ $ $ $ $ $ $ $ $ $ $ $ $ $ $ $ $ ",
"% % % % % % % % % % % % % % % % % % % ",
"& & & & & * = - ; > , - ' ) & & & & & ",
") ) ) ) ! ~ { ] ^ / ( _ { : < ) ) ) ) ",
"[ } < | 1 2 3 4 5 6 5 4 3 2 7 8 < } } ",
"9 0 a ] b c d e f g h i j 4 b k l 0 0 ",
"m n o p q r s t t t t t u v w p x n > ",
"8 y 2 q i u z z z z z z z s A B C 7 D ",
"E F c G z H I I I I I I I J g K c L M ",
"N O d P Q H I I I I I I I J Q R j O S ",
"T U V W Q H H X z z z Y Z J Q `  ...+.",
"@.#.J $.Q H Z Q %.&.%.Q *.J Q $.H #.=.",
"-.;.>.$.Q H ,.'.u s u '.).J Q Q Z q !.",
"~.{.].Y u >.^.X z Y z X Z /.u z J (._.",
":.<.V R g J J [.f [.f f ^.}.g [.|.1.2.",
":.3.4.5.6.K d 7.7.7.7.7.8.].6.e 4.3.9.",
":.0.a.b.c.d.e.e v v v e e.f.g.h.a.i.j.",
"k.l.m.j n.e P o.f.p.f.o.P e.V j q.9.j.",
"k.j.r.s.t.b.}.).e i e )./.h.t.u.r.j.j.",
"k.j.v.w.u.b.x.n.n.x.n.n.x.y.u.z.A.j.j.",
"k.j.j.j.B.C.D.E.F.V F.G.H.I.J.j.j.j.j.",
"k.j.j.j.j.l.K.L.M.N.M.O.K.v.j.j.j.j.j.",
"k.j.j.j.j.j.j.j.j.j.j.j.j.j.j.j.j.j.j.",
"k.j.j.j.j.j.j.j.j.j.j.j.j.j.j.j.j.j.j.",
"k.j.j.j.j.j.j.j.j.j.j.j.j.j.j.j.j.j.j.",
"k.j.j.j.j.j.j.j.j.j.j.j.j.j.j.j.j.j.j."};
