/* XPM */
static char * menu_pressed_xpm[] = {
"19 29 132 2",
"  	c None",
". 	c #5F5E57",
"+ 	c #5E5C55",
"@ 	c #5E5D55",
"# 	c #5B5A53",
"$ 	c #595750",
"% 	c #56554D",
"& 	c #54524A",
"* 	c #525048",
"= 	c #504E46",
"- 	c #4F4D45",
"; 	c #4D4B43",
"> 	c #4C4A43",
", 	c #4B4942",
"' 	c #47453F",
") 	c #3F3E38",
"! 	c #373530",
"~ 	c #393832",
"{ 	c #42403A",
"] 	c #494740",
"^ 	c #4A4942",
"/ 	c #4A4841",
"( 	c #3F3D37",
"_ 	c #302E2A",
": 	c #2F2E29",
"< 	c #31302B",
"[ 	c #32302C",
"} 	c #302F2A",
"| 	c #35332E",
"1 	c #44423C",
"2 	c #48463F",
"3 	c #45433D",
"4 	c #3B3934",
"5 	c #2D2C28",
"6 	c #35342F",
"7 	c #3B3A35",
"8 	c #3D3C37",
"9 	c #3D3B37",
"0 	c #393733",
"a 	c #34332E",
"b 	c #413F3A",
"c 	c #45443D",
"d 	c #3D3B36",
"e 	c #34322E",
"f 	c #45443F",
"g 	c #747472",
"h 	c #8B8B8B",
"i 	c #868685",
"j 	c #676664",
"k 	c #393833",
"l 	c #33312D",
"m 	c #32312C",
"n 	c #42403B",
"o 	c #42413B",
"p 	c #403F39",
"q 	c #353530",
"r 	c #2F2E2A",
"s 	c #43433E",
"t 	c #747473",
"u 	c #8E8E8E",
"v 	c #8E8E8D",
"w 	c #888888",
"x 	c #666664",
"y 	c #363531",
"z 	c #2E2D29",
"A 	c #3F3E39",
"B 	c #3C3B36",
"C 	c #32312D",
"D 	c #31302C",
"E 	c #4B4B48",
"F 	c #8F8F8F",
"G 	c #8C8C8C",
"H 	c #8D8D8D",
"I 	c #838383",
"J 	c #383733",
"K 	c #2F2F2B",
"L 	c #33322E",
"M 	c #32322E",
"N 	c #4D4C49",
"O 	c #949494",
"P 	c #898988",
"Q 	c #373633",
"R 	c #34332F",
"S 	c #3B3B36",
"T 	c #3C3B37",
"U 	c #3B3A36",
"V 	c #353430",
"W 	c #474643",
"X 	c #828282",
"Y 	c #727270",
"Z 	c #353431",
"` 	c #343330",
" .	c #373632",
"..	c #383734",
"+.	c #3C3B38",
"@.	c #50504D",
"#.	c #7E7E7E",
"$.	c #929292",
"%.	c #737271",
"&.	c #434340",
"*.	c #3D3C38",
"=.	c #3E3D39",
"-.	c #454440",
";.	c #43423F",
">.	c #3A3935",
",.	c #4C4B49",
"'.	c #565654",
").	c #545452",
"!.	c #474744",
"~.	c #43433F",
"{.	c #42413E",
"].	c #403F3C",
"^.	c #4F4E4B",
"/.	c #4B4A47",
"(.	c #4E4D4A",
"_.	c #4D4D4A",
":.	c #4A4946",
"<.	c #4C4B47",
"[.	c #4C4C48",
"}.	c #3F3E3A",
"|.	c #4D4C48",
"1.	c #565552",
"2.	c #646361",
"3.	c #6C6B69",
"4.	c #6B6A68",
"5.	c #5E5E5B",
"6.	c #51504D",
"7.	c #494844",
"8.	c #464542",
"9.	c #53534F",
"0.	c #53524F",
"a.	c #44433F",
". . . . . . . . . . . . . . . . . . . ",
"+ + + + + + + + + + + @ @ @ @ @ @ @ @ ",
"# # # # # # # # # # # # # # # # # # # ",
"$ $ $ $ $ $ $ $ $ $ $ $ $ $ $ $ $ $ $ ",
"% % % % % % % % % % % % % % % % % % % ",
"& & & & & & & & & & & & & & & & & & & ",
"* * * * * * * * * * * * * * * * * * * ",
"= - - - - - - - - - - - - - - - - - - ",
"; > > > > > , ' ) ! ~ { ] > > > > > > ",
"^ / / / / ] ( _ : < [ } | 1 / / / / / ",
"2 ' ' ' 3 4 5 6 7 8 9 0 a } b ' ' ' ' ",
"c 3 3 1 d [ e f g h i j k l m n 3 3 3 ",
"o o o p q r s t u u v w x y z k o o o ",
"A A A B C D E F G H H H I J K L A A A ",
"8 8 8 7 M M N O h H G u P Q C R 8 8 8 ",
"S T T U y V W X F H H u Y Z `  .T T T ",
"U T T T U ..+.@.#.$.u %.&.J J *.T T T ",
"U T T =.-.;.>.*.,.'.).!.>.T ~.{.T T T ",
"U T T *.].W ^././.(._.:.<.[.-.}.T T T ",
"U T T T *.].|.1.2.3.4.5.6.7.=.T T T T ",
"U T T T T T }.8.(.9.0.<.a.=.T T T T T ",
"U T T T T T T T T T T T T T T T T T T ",
"U T T T T T T T T T T T T T T T T T T ",
"U T T T T T T T T T T T T T T T T T T ",
"U T T T T T T T T T T T T T T T T T T ",
"U T T T T T T T T T T T T T T T T T T ",
"U T T T T T T T T T T T T T T T T T T ",
"U T T T T T T T T T T T T T T T T T T ",
"U T T T T T T T T T T T T T T T T T T "};
