/* XPM */
static char * menu_active_xpm[] = {
"19 29 131 2",
"  	c None",
". 	c #5F5E57",
"+ 	c #5E5C55",
"@ 	c #5E5D55",
"# 	c #5B5A53",
"$ 	c #595750",
"% 	c #56554D",
"& 	c #54524A",
"* 	c #525048",
"= 	c #504E46",
"- 	c #4F4D45",
"; 	c #4D4B43",
"> 	c #4C4A43",
", 	c #4B4942",
"' 	c #47453F",
") 	c #3F3E38",
"! 	c #373530",
"~ 	c #393832",
"{ 	c #42403A",
"] 	c #494740",
"^ 	c #4A4942",
"/ 	c #4A4841",
"( 	c #3F3D37",
"_ 	c #302E2A",
": 	c #2F2E29",
"< 	c #31302B",
"[ 	c #32302C",
"} 	c #302F2A",
"| 	c #35332E",
"1 	c #44423C",
"2 	c #48463F",
"3 	c #45433D",
"4 	c #3B3934",
"5 	c #2D2C28",
"6 	c #35342F",
"7 	c #3B3A35",
"8 	c #3D3C37",
"9 	c #3D3B37",
"0 	c #393733",
"a 	c #34332E",
"b 	c #413F3A",
"c 	c #45443D",
"d 	c #3D3B36",
"e 	c #34322E",
"f 	c #45443F",
"g 	c #727270",
"h 	c #888888",
"i 	c #848483",
"j 	c #656462",
"k 	c #393833",
"l 	c #33312D",
"m 	c #32312C",
"n 	c #42403B",
"o 	c #42413B",
"p 	c #403F39",
"q 	c #353530",
"r 	c #2F2E2A",
"s 	c #42423D",
"t 	c #727271",
"u 	c #8B8B8B",
"v 	c #8B8B8A",
"w 	c #868686",
"x 	c #646462",
"y 	c #353430",
"z 	c #2E2D29",
"A 	c #3F3E39",
"B 	c #3C3B36",
"C 	c #32312D",
"D 	c #31302C",
"E 	c #4A4A47",
"F 	c #8C8C8C",
"G 	c #898989",
"H 	c #8A8A8A",
"I 	c #818181",
"J 	c #373632",
"K 	c #2F2F2B",
"L 	c #33322E",
"M 	c #32322E",
"N 	c #4C4B48",
"O 	c #919191",
"P 	c #868685",
"Q 	c #363532",
"R 	c #34332F",
"S 	c #3B3B36",
"T 	c #3C3B37",
"U 	c #3B3A36",
"V 	c #363531",
"W 	c #464542",
"X 	c #808080",
"Y 	c #71716F",
"Z 	c #353431",
"` 	c #343330",
" .	c #383734",
"..	c #3C3B38",
"+.	c #4F4F4C",
"@.	c #7B7B7B",
"#.	c #8F8F8F",
"$.	c #71706F",
"%.	c #42423F",
"&.	c #383733",
"*.	c #3D3C38",
"=.	c #3E3D39",
"-.	c #44433F",
";.	c #42413E",
">.	c #3A3935",
",.	c #4B4A48",
"'.	c #555553",
").	c #535351",
"!.	c #464643",
"~.	c #43433F",
"{.	c #403F3C",
"].	c #474643",
"^.	c #4E4D4A",
"/.	c #4B4A47",
"(.	c #4C4C49",
"_.	c #4A4946",
":.	c #4C4B47",
"<.	c #4C4C48",
"[.	c #454440",
"}.	c #3F3E3A",
"|.	c #555451",
"1.	c #62615F",
"2.	c #6B6A68",
"3.	c #6A6967",
"4.	c #5E5E5B",
"5.	c #504F4C",
"6.	c #484743",
"7.	c #454441",
"8.	c #52524E",
"9.	c #52514E",
"0.	c #43423E",
". . . . . . . . . . . . . . . . . . . ",
"+ + + + + + + + + + + @ @ @ @ @ @ @ @ ",
"# # # # # # # # # # # # # # # # # # # ",
"$ $ $ $ $ $ $ $ $ $ $ $ $ $ $ $ $ $ $ ",
"% % % % % % % % % % % % % % % % % % % ",
"& & & & & & & & & & & & & & & & & & & ",
"* * * * * * * * * * * * * * * * * * * ",
"= - - - - - - - - - - - - - - - - - - ",
"; > > > > > , ' ) ! ~ { ] > > > > > > ",
"^ / / / / ] ( _ : < [ } | 1 / / / / / ",
"2 ' ' ' 3 4 5 6 7 8 9 0 a } b ' ' ' ' ",
"c 3 3 1 d [ e f g h i j k l m n 3 3 3 ",
"o o o p q r s t u u v w x y z k o o o ",
"A A A B C D E F G H H H I J K L A A A ",
"8 8 8 7 M M N O h H G u P Q C R 8 8 8 ",
"S T T U V y W X F H H u Y Z ` J T T T ",
"U T T T U  ...+.@.#.u $.%.&.&.*.T T T ",
"U T T =.-.;.>.*.,.'.).!.>.T ~.;.T T T ",
"U T T *.{.].^././.^.(._.:.<.[.}.T T T ",
"U T T T *.{.:.|.1.2.3.4.5.6.=.T T T T ",
"U T T T T T }.7.^.8.9.:.0.=.T T T T T ",
"U T T T T T T T T T T T T T T T T T T ",
"U T T T T T T T T T T T T T T T T T T ",
"U T T T T T T T T T T T T T T T T T T ",
"U T T T T T T T T T T T T T T T T T T ",
"U T T T T T T T T T T T T T T T T T T ",
"U T T T T T T T T T T T T T T T T T T ",
"U T T T T T T T T T T T T T T T T T T ",
"U T T T T T T T T T T T T T T T T T T "};
