/* XPM */
static char * menu_prelight_xpm[] = {
"19 29 147 2",
"  	c None",
". 	c #5F5E57",
"+ 	c #5E5C55",
"@ 	c #5E5D55",
"# 	c #5B5A53",
"$ 	c #595750",
"% 	c #56554D",
"& 	c #54524A",
"* 	c #525048",
"= 	c #504E46",
"- 	c #4F4D45",
"; 	c #4D4B43",
"> 	c #4C4A43",
", 	c #4B4942",
"' 	c #47453F",
") 	c #3F3E38",
"! 	c #373530",
"~ 	c #393832",
"{ 	c #42403A",
"] 	c #494740",
"^ 	c #4A4942",
"/ 	c #4A4841",
"( 	c #3F3D37",
"_ 	c #302E2A",
": 	c #2F2E29",
"< 	c #31302B",
"[ 	c #32302C",
"} 	c #302F2A",
"| 	c #35332E",
"1 	c #44423C",
"2 	c #48463F",
"3 	c #45433D",
"4 	c #3B3934",
"5 	c #2D2C28",
"6 	c #363530",
"7 	c #3D3C37",
"8 	c #41413B",
"9 	c #413F3B",
"0 	c #3A3834",
"a 	c #34332E",
"b 	c #413F3A",
"c 	c #45443D",
"d 	c #3D3B36",
"e 	c #35332F",
"f 	c #4D4B45",
"g 	c #969590",
"h 	c #BCB8B2",
"i 	c #B5B1AB",
"j 	c #83807B",
"k 	c #3B3A34",
"l 	c #33312D",
"m 	c #32312C",
"n 	c #42403B",
"o 	c #42413B",
"p 	c #403F39",
"q 	c #353530",
"r 	c #302F2B",
"s 	c #4B4A45",
"t 	c #999691",
"u 	c #C1BCB6",
"v 	c #C2BDB6",
"w 	c #C2BEB6",
"x 	c #B9B5AF",
"y 	c #82807B",
"z 	c #373632",
"A 	c #2E2D29",
"B 	c #393833",
"C 	c #3F3E39",
"D 	c #3C3B36",
"E 	c #32312D",
"F 	c #595853",
"G 	c #C4BFB9",
"H 	c #C1BBB5",
"I 	c #C1BCB5",
"J 	c #C2BCB5",
"K 	c #B2ADA8",
"L 	c #3B3A36",
"M 	c #2F2F2B",
"N 	c #33322E",
"O 	c #3B3A35",
"P 	c #32322E",
"Q 	c #33332F",
"R 	c #5C5A54",
"S 	c #CBC6BF",
"T 	c #BFBAB3",
"U 	c #C2BDB5",
"V 	c #B9B4AE",
"W 	c #3B3936",
"X 	c #34332F",
"Y 	c #3B3B36",
"Z 	c #3C3B37",
"` 	c #363531",
" .	c #353430",
"..	c #51504C",
"+.	c #AFACA7",
"@.	c #C5C0B9",
"#.	c #C1BDB6",
"$.	c #97958F",
"%.	c #373633",
"&.	c #343330",
"*.	c #3D3C38",
"=.	c #383734",
"-.	c #3E3D3A",
";.	c #62615C",
">.	c #A9A6A1",
",.	c #C8C3BD",
"'.	c #C2BDB7",
").	c #97938F",
"!.	c #4D4C48",
"~.	c #393834",
"{.	c #383733",
"].	c #3E3D39",
"^.	c #3F3E3A",
"/.	c #494844",
"(.	c #474643",
"_.	c #3A3935",
":.	c #403F3A",
"<.	c #595855",
"[.	c #6C6A66",
"}.	c #686663",
"|.	c #51504D",
"1.	c #494945",
"2.	c #464542",
"3.	c #43423F",
"4.	c #4E4D4A",
"5.	c #545350",
"6.	c #5A5955",
"7.	c #585855",
"8.	c #53524F",
"9.	c #555450",
"0.	c #555551",
"a.	c #4A4945",
"b.	c #41403C",
"c.	c #646360",
"d.	c #787775",
"e.	c #858482",
"f.	c #838280",
"g.	c #70706D",
"h.	c #5C5B58",
"i.	c #4F4E4A",
"j.	c #403F3B",
"k.	c #4B4A47",
"l.	c #585754",
"m.	c #5E5E5A",
"n.	c #5E5D5A",
"o.	c #54534F",
"p.	c #474642",
". . . . . . . . . . . . . . . . . . . ",
"+ + + + + + + + + + + @ @ @ @ @ @ @ @ ",
"# # # # # # # # # # # # # # # # # # # ",
"$ $ $ $ $ $ $ $ $ $ $ $ $ $ $ $ $ $ $ ",
"% % % % % % % % % % % % % % % % % % % ",
"& & & & & & & & & & & & & & & & & & & ",
"* * * * * * * * * * * * * * * * * * * ",
"= - - - - - - - - - - - - - - - - - - ",
"; > > > > > , ' ) ! ~ { ] > > > > > > ",
"^ / / / / ] ( _ : < [ } | 1 / / / / / ",
"2 ' ' ' 3 4 5 6 7 8 9 0 a } b ' ' ' ' ",
"c 3 3 1 d [ e f g h i j k l m n 3 3 3 ",
"o o o p q r s t u v w x y z A B o o o ",
"C C C D E E F G H I I J K L M N C C C ",
"7 7 7 O P Q R S T v I U V W E X 7 7 7 ",
"Y Z Z L `  ...+.@.I v #.$.%.&.z Z Z Z ",
"L Z Z Z *.=.-.;.>.,.'.).!.~.{.].Z Z Z ",
"L Z Z ^./.(._.:.<.[.}.|._.Z 1.2.Z Z Z ",
"L Z Z *.3.4.<.5.5.6.7.8.9.0.a.b.Z Z Z ",
"L Z Z Z *.3.9.c.d.e.f.g.h.i.j.Z Z Z Z ",
"L Z Z Z Z *.b.k.l.m.n.o.p.^.Z Z Z Z Z ",
"L Z Z Z Z Z Z Z Z Z Z Z Z Z Z Z Z Z Z ",
"L Z Z Z Z Z Z Z Z Z Z Z Z Z Z Z Z Z Z ",
"L Z Z Z Z Z Z Z Z Z Z Z Z Z Z Z Z Z Z ",
"L Z Z Z Z Z Z Z Z Z Z Z Z Z Z Z Z Z Z ",
"L Z Z Z Z Z Z Z Z Z Z Z Z Z Z Z Z Z Z ",
"L Z Z Z Z Z Z Z Z Z Z Z Z Z Z Z Z Z Z ",
"L Z Z Z Z Z Z Z Z Z Z Z Z Z Z Z Z Z Z ",
"L Z Z Z Z Z Z Z Z Z Z Z Z Z Z Z Z Z Z "};
