/* XPM */
static char * menu_inactive_xpm[] = {
"19 29 138 2",
"  	c None",
". 	c #5F5E57",
"+ 	c #5E5C55",
"@ 	c #5E5D55",
"# 	c #5B5A53",
"$ 	c #595750",
"% 	c #56554D",
"& 	c #54524A",
"* 	c #525048",
"= 	c #504E46",
"- 	c #4F4D45",
"; 	c #4D4B43",
"> 	c #4C4A43",
", 	c #4B4942",
"' 	c #47453F",
") 	c #3F3E38",
"! 	c #373530",
"~ 	c #393832",
"{ 	c #42403A",
"] 	c #494740",
"^ 	c #4A4942",
"/ 	c #4A4841",
"( 	c #3F3D37",
"_ 	c #302E2A",
": 	c #2F2E29",
"< 	c #31302B",
"[ 	c #32302C",
"} 	c #302F2A",
"| 	c #35332E",
"1 	c #44423C",
"2 	c #48463F",
"3 	c #45433D",
"4 	c #3B3934",
"5 	c #2D2C28",
"6 	c #363530",
"7 	c #3D3C37",
"8 	c #41413B",
"9 	c #413F3B",
"0 	c #3A3834",
"a 	c #34332E",
"b 	c #413F3A",
"c 	c #45443D",
"d 	c #3D3B36",
"e 	c #35332F",
"f 	c #484642",
"g 	c #6E6C68",
"h 	c #64615F",
"i 	c #676460",
"j 	c #686663",
"k 	c #33312D",
"l 	c #32312C",
"m 	c #42403B",
"n 	c #42413B",
"o 	c #403F39",
"p 	c #353530",
"q 	c #302F2B",
"r 	c #44443F",
"s 	c #6C6967",
"t 	c #595755",
"u 	c #575553",
"v 	c #5C5A58",
"w 	c #696663",
"x 	c #373632",
"y 	c #2E2D29",
"z 	c #393833",
"A 	c #3F3E39",
"B 	c #3C3B36",
"C 	c #32312D",
"D 	c #464542",
"E 	c #676462",
"F 	c #555351",
"G 	c #585653",
"H 	c #65625F",
"I 	c #3B3A36",
"J 	c #2F2F2B",
"K 	c #33322E",
"L 	c #3B3A35",
"M 	c #32322E",
"N 	c #33332F",
"O 	c #464540",
"P 	c #646260",
"Q 	c #63605D",
"R 	c #3B3936",
"S 	c #34332F",
"T 	c #3B3B36",
"U 	c #3C3B37",
"V 	c #363531",
"W 	c #353430",
"X 	c #454541",
"Y 	c #6F6D6A",
"Z 	c #6B6966",
"` 	c #373633",
" .	c #343330",
"..	c #3D3C38",
"+.	c #383734",
"@.	c #3D3C39",
"#.	c #514F4C",
"$.	c #6B6965",
"%.	c #63615E",
"&.	c #474543",
"*.	c #393834",
"=.	c #383733",
"-.	c #3E3D39",
";.	c #3F3E3A",
">.	c #494844",
",.	c #474643",
"'.	c #3A3935",
").	c #3E3D3A",
"!.	c #4C4C48",
"~.	c #4F4E4B",
"{.	c #4F4D4A",
"].	c #494845",
"^.	c #494945",
"/.	c #43423F",
"(.	c #4E4D4A",
"_.	c #595855",
":.	c #545350",
"<.	c #5A5955",
"[.	c #585855",
"}.	c #53524F",
"|.	c #555450",
"1.	c #555551",
"2.	c #4A4945",
"3.	c #41403C",
"4.	c #646360",
"5.	c #787775",
"6.	c #858482",
"7.	c #838280",
"8.	c #70706D",
"9.	c #5C5B58",
"0.	c #4F4E4A",
"a.	c #403F3B",
"b.	c #4B4A47",
"c.	c #585754",
"d.	c #5E5E5A",
"e.	c #5E5D5A",
"f.	c #54534F",
"g.	c #474642",
". . . . . . . . . . . . . . . . . . . ",
"+ + + + + + + + + + + @ @ @ @ @ @ @ @ ",
"# # # # # # # # # # # # # # # # # # # ",
"$ $ $ $ $ $ $ $ $ $ $ $ $ $ $ $ $ $ $ ",
"% % % % % % % % % % % % % % % % % % % ",
"& & & & & & & & & & & & & & & & & & & ",
"* * * * * * * * * * * * * * * * * * * ",
"= - - - - - - - - - - - - - - - - - - ",
"; > > > > > , ' ) ! ~ { ] > > > > > > ",
"^ / / / / ] ( _ : < [ } | 1 / / / / / ",
"2 ' ' ' 3 4 5 6 7 8 9 0 a } b ' ' ' ' ",
"c 3 3 1 d [ e f g h i j d k l m 3 3 3 ",
"n n n o p q r s t u u v w x y z n n n ",
"A A A B C C D E F F F G H I J K A A A ",
"7 7 7 L M N O P F F F u Q R C S 7 7 7 ",
"T U U I V W X Y F F F t Z `  .x U U U ",
"I U U U ..+.@.#.$.%.P j &.*.=.-.U U U ",
"I U U ;.>.,.'.).!.~.{.].I U ^.D U U U ",
"I U U ../.(._.:.:.<.[.}.|.1.2.3.U U U ",
"I U U U ../.|.4.5.6.7.8.9.0.a.U U U U ",
"I U U U U ..3.b.c.d.e.f.g.;.U U U U U ",
"I U U U U U U U U U U U U U U U U U U ",
"I U U U U U U U U U U U U U U U U U U ",
"I U U U U U U U U U U U U U U U U U U ",
"I U U U U U U U U U U U U U U U U U U ",
"I U U U U U U U U U U U U U U U U U U ",
"I U U U U U U U U U U U U U U U U U U ",
"I U U U U U U U U U U U U U U U U U U ",
"I U U U U U U U U U U U U U U U U U U "};
